<mxfile host="Electron" agent="Mozilla/5.0 (X11; Linux x86_64) AppleWebKit/537.36 (KHTML, like Gecko) draw.io/24.7.8 Chrome/128.0.6613.36 Electron/32.0.1 Safari/537.36" version="24.7.8">
  <diagram id="C5RBs43oDa-KdzZeNtuy" name="Page-1">
    <mxGraphModel dx="2209" dy="1318" grid="1" gridSize="10" guides="1" tooltips="1" connect="1" arrows="1" fold="1" page="1" pageScale="1" pageWidth="827" pageHeight="1169" math="0" shadow="0">
      <root>
        <mxCell id="WIyWlLk6GJQsqaUBKTNV-0" />
        <mxCell id="WIyWlLk6GJQsqaUBKTNV-1" parent="WIyWlLk6GJQsqaUBKTNV-0" />
        <mxCell id="3gFDN2M3ZXm_7jDwdWTa-135" value="" style="whiteSpace=wrap;html=1;fillColor=#F7F3FA;dashed=1;dashPattern=8 8;strokeColor=#9673a6;fillStyle=auto;" parent="WIyWlLk6GJQsqaUBKTNV-1" vertex="1">
          <mxGeometry x="630" y="1070" width="950" height="420" as="geometry" />
        </mxCell>
        <mxCell id="3gFDN2M3ZXm_7jDwdWTa-0" value="" style="shape=image;verticalLabelPosition=bottom;labelBackgroundColor=default;verticalAlign=top;aspect=fixed;imageAspect=0;image=data:image/png,iVBORw0KGgoAAAANSUhEUgAAA10AAAKjCAYAAADmlGWCAAAABHNCSVQICAgIfAhkiAAAABl0RVh0U29mdHdhcmUAZ25vbWUtc2NyZWVuc2hvdO8Dvz4AAAAodEVYdENyZWF0aW9uIFRpbWUAdmVuLiAwMiBhb/t0IDIwMjQgMDA6NDQ6MznDgtNvAAAgAElEQVR4nOzdeXgVdb7v+3ettTJBAiQQpkBARhlEAZFJUBRBZlRwbKdWG+1r771vn3Ofc577xz37Ps/999zn9L67d7c4teDYaoNgK6II7YjMKPMQQhjDFJIQMq5V94+oTe9u6BazsgK8X39pFr9V36r86lf1qV9VJcjJ7RQiSZIkSUqKSKoLkCRJkqTLmaFLkiRJkpLI0CVJkiRJSWTokiRJkqQkMnRJkiRJUhIZuiRJkiQpiQxdkiRJkpREhi5JkiRJSiJDlyRJkiQlkaFLkiRJkpLI0CVJkiRJSWTokiRJkqQkMnRJkiRJUhIZuiRJkiQpiQxdkiRJkpREhi5JkiRJSiJDlyRJkiQlkaFLkiRJkpLI0CVJkiRJSWTokiRJkqQkMnRJkiRJUhIZuiRJkiQpiQxdkiRJkpREhi5JkiRJSqJYqguQJEl/LdZ7Evff0p+8/Dq+/M18vioLU12SJOkiGbokSfoHBdnXMeuRWymIRshs25bI2TLO1icoX/8Gr352mEQTLqth73IW7Puam342owm/VZKUCoYuSZL+QeGZTSz+900Q5DHqsUdos/xXLC+Jf/tplPbXzmTa6I5QHyOtehsfLVrF/po8Rj92Dx2Kj5BT2IW2revY8cdXWVV0ljDShn6T7mRcYRr1QTqJ4hUsWb6DigtNap23TUCrPrcz9/Y+UFHGsYPVdOtxmN+/epIbnxzD4RdeYmNlCKTRa8YvGHnoWV7fUInzZ5KUfD7TJUlSEwhyhjF5Qow1C+az4Pn5vHdsMFNu7EqEkDDoSOf4V/z+hf/guXdLGXDLcNoFkNF/MpPzt/Hmc8+y4LnX2d11BuP7pF1wOedtE+nAsFsHcHTpb3lpwe/5JlpAe0LCuj2s/7o1Q67JIwDI6MM1PQ6wYZuBS5Kai6FLkqQmEOlcSMfjeyk+GwL1HNt3kMwuBbQKgEQ5+/aU0gDUHznIyXb55EUi5HXrSmXRXioTQLyM/SW1dO6ae4GD8wXaRDqQ3+4Yh47WA3Uc2VVEJQAJSjeso37wdXSKBGT1H0rHPWvZW5P8bSJJamTokiSpKYRh48xR8Bc//PY5rwRh4rt5peAvPv+LnwSQCP/e/NP52gSNP/wbzcPyzaw/3o9re+Qx4JrWbFtfQsM/sk6SpCZh6JIkqQkkju6ntGN/ercKgDQ69+5G1YGD1IRApB0F3dsSAWJdu9H+VCmnEglOlhwhp29f2kSAaHuuKkzjyIGyC7yQ4wJtEmWcKu9Al04xIJ2u/fuQ8327Gvas3UeXm2czJNzI1yea8pUfkqS/xxdpSJLUBMIzm/jgo25Mf/BnDK+PEalYz7tLjpIgFxLl1OTfytwH29GmTcjW9z7kdAjhrmW83+Mu7nr8GuqJUbt7EUuLGyCjP5MevJXu0Rg5+bmE9z3F4LojfPXGYracr014lI2fFHP3nU/x0MmTHDl6iLJE+P3EV/zwenZnXEf+6i1U+jCXJDWrICe3k0OvJEnJEuQx6tH7yXjvP/jT0WTOMAVkdbmagsQ+9pbWkjXkfh7tvY75i3ZSD0TyRnHv3Hb86fllHPLeQklqVs50SZJ0WQipJ5fr7riNm+NxAo7x2aI91BOlYPxDTLsGti99jcMGLklqds50SZIkSVIS+SINSZIkSUoiQ5ckSZIkJZGhS5IkSZKSyNAlSZIkSUlk6JIkSZKkJDJ0SZIkSVISGbokSZIkKYkMXZIkpVSE9uPmcf+IHIJUlyJJSgpDlyRJkiQlkaFLkiRJkpLI0CVJkiRJSWTokiRJkqQkMnRJkiRJUhIZuiRJkiQpiQxdkiRJkpREhi5JkiRJSiJDlyRJkiQlUZCT2ylMdRGSJEmSdLlypkuSJEmSksjQJUmSJElJZOiSJEmSpCQydEmSJElSEhm6JEmSJCmJDF2SJEmSlESGLkmSJElKIkOXJEmSJCWRoUuSJEmSkiiW6gIk6fIQpf21M5k2uiPUx0ir3sZHi1axvzpMdWFqySJt6DfpTsYVplEfpJMoXsGS5TuosNvoQuw30iXH0CVJTSDIGcbkCTHWzJ/PjrMxukx8klk37mL+h4dIpLo4tVgZ/SczOX8bLz23hoqgPSMf+inj++zl3d31qS5NLZj9Rrr0eHuhJDWBSOdCOh7fS/HZEKjn2L6DZHYpoFWQ6srUckXI69aVyqK9VCaAeBn7S2rp3DXXg7MuwH4jXYqc6ZKkphCGhAAB8P0tPmHjLFeQzZA585hQGIPECda8+iJfliaACB3GPMR9ozsRIc6hlfN5e0NFY/NYf6Y8PZt+UQirNrP42WWUxGnyNtHut/HI3GFkB9CwZynz39lG/QVrbuI2V/x6NnaW77tNAInw2w7UlNumudbziu/rzbWeF+g3klqkICe3k3upJP1IQfZw7nmiH9/Mf52tVTEKJj3J1Pq3eH7lEW8v1Hml95/LvNEHWLhgNaeDfEY//BDtVv6K9/c1pLo0tWD2G+nSY+iSpCYRJfea6Uwf25mgPkakYiMfLPmSI7UOsbqAIIc+t93FTT3TqCdG7e4PWLqqiLN2G12I/Ua65Bi6JEmSJCmJfOZSkiRJkpLI0CVJkiRJSWTokiRJkqQkMnRJkiRJUhIZuiRJkiQpiQxdkiRJkpREhi5JkiRJSiJDlyRJkiQlkaFLkiRJkpLI0CVJTShaOJV5cwcTS3UhuoREaD9uHvePyCFIdSm6hNhvpEuJoUuSJEmSksjQJUmSJElJZOiSJEmSpCQydEmSJElSEhm6JEmSJCmJDF2SJEmSlESGLkmSJElKIkOXJEmSJCWRoUuSJEmSkijIye0UproISZIkSbpcOdMlSZIkSUlk6JIkSZKkJDJ0SZIkSVISGbokSZIkKYkMXZIkSZKURIYuSZIkSUoiQ5ckNaFo4VTmzR1MLNWF6BISof24edw/Iocg1aXoEmK/kS4lhi5JkiRJSiJDlyRJkiQlkaFLkiRJkpLI0CVJkiRJSWTokiRJkqQkMnRJkiRJUhIZuiRJkiQpiQxdkiRJkpREhi5JkiRJSqIgJ7dTmOoiJEmSJOly5UyXJEmSJCWRoUuSJEmSksjQJUmSJElJZOiSJEmSpCQydEmSJElSEhm6JEmSJCmJDF2SJEmSlESGLkmSJElKIkOXJEmSJCVRLNUFSJeHKO2vncm00R2hPkZa9TY+WrSK/dVhqgsTkF4wiulThtMm3kAsdprN7y5i7ZG6VJelC4m0od+kOxlXmEZ9kE6ieAVLlu+g4grapey3lyD7bQvmcVqpFc3Iyv7XVBchXeqCnOuZfWce615YyIo1GznaaSrTexxkQ1ElDucpFsln9L1TCJc/w9ur1rKtsi8zJuayZ1MJNamuTeeVcfVM7um7h1dfWsqajUVk3XgvA8+sZdepRKpLax7220vSFd9vWzCP00o1by+UmkCkcyEdj++l+GwI1HNs30EyuxTQKkh1ZSKtgK5tD1F0sA4IqdlfxLH8AjpFU12Yzi9CXreuVBbtpTIBxMvYX1JL5665V85By357CbLftmQep5Vq3l4oNYUwbLxSFsCfL5mFJACCbIbMmceEwhgkTrDm1Rf5srTxqme0+208MncY2QE07FnK/He2UQ8Q68+Up2fTLwph1WYWP7uMkjhAhA5jHuK+0Z2IEOfQyvm8vaGicZFN2eZiam7J60lAcM6BNQi//TU113qet00z/T4v0KZ51vNi+sB3vzm+37cS4ZV2Pfo8/bYl79NXdF+HC/bby2Y9W8i4/kP7+oWO01IzCHJyO11pRzGpyQXZw7nniX58M/91tlbFKJj0JFPr3+L5lUcc0FMt0oExjz1E249/zft768jsfyePjTrEwgWrfc6iBUvvP5d5ow+wcMFqTgf5jH74Idqt/BXv72to+oVFOjB40jiyvlnC2kPxv6yj5zhu63OKT1ds/cv+coE2TVWT/fbS06z9Vj+Ix2mlmqFLahJRcq+ZzvSxnQnqY0QqNvLBki85Uuvu1RKkdR7J9OnDaROPk8Zx1ix9h69PJOFEWU0nyKHPbXdxU8806olRu/sDlq4q4mwydqloTyb986O0Xf7/8OaW+nOLoNWwh/nnMYd48T8+5GjiH2nTdOy3l6Dm7Lf6gTxOK7UMXZIkSZKURD7bKUmSJElJZOiSJEmSpCQydEmSJElSEhm6JEmSJCmJDF2SJEmSlESGLkmSJElKIkOXJEmSJCWRoUuSJEmSksjQJUmSJElJZOiSmlC0cCrz5g4mlupCLkHRwqn8/CfX0ypIdSVqOSK0HzeP+0fkcMV2i9gAZj09gx7RVBdyCQpacd1PfsmkQjee/szjtFLF0CWpCUQZcPf/zX9/ZBRtAyCSz7ifPcaItlfsqbKkHyUge8Rj/J///T4GtgqAKIVTfsmcwWmpLkySLopBX1LTCM9S1e56RnRfx0cHz/0gSvtrZzJtdEeoj5FWvY2PFq1ifzW07juFOZN7E54+xYnyKBGONTYJ2tBn4mzGdIuSiGUSHvwT736wjfJEKlZMUmokqKztwojhHdjx6am/+CS9YBTTpwynTbyBWOw0m99dxNojdRDrxPVz7ub6NlWUnTpCbRacBSBK3jXTmTKiPYQZpNfuZOU7KymuClOxYpKuQM50SWoi9ezbUEzh6MG0PmeCK8gZxuQJMdYsmM+C5+fz3rHBTLmxK5FIJ66/tR+Hl/yWBS+/ztqKNmR/OyKl953IhLYbeOt3L/Lycy/zTbvbualvempWS1KKhFTv2MDpgWPpee7uH8nnhmkjOfPhs/zuxfm8vKqOG6beQG4AGf0nMDb2Ja88+wK/f+8AkdzGQSVofS0Tx8b57JUXeOXFZ3inuA+Tb+zmSZCkZuNMl6QmEhA/uJqve9zFsI5Lvv9ppHMhHY/vpfhsCNRzbN9BMscW0CpaTX67UrYergfgVEkJVd0BIrTv1p123Tsz99Exjd+RGVLdLocIJ3GyS7qC1O5iza4Z3HxtO7747mdpBXRte4gNB+sAqNlfxLH8q+kUjVDWsQNnD62kKoSwuoSS0gR5QKRTIQXtejHhgZ8RAsSyiJ7IIyM4QLWTXZKagaFLUhMq4+vVpTw0qi/7gBqAMGw8yQmA709uQhL/+XGvSOT7q84hCco2vc3ClaWGLOmKFnJszRrqHxhJ1yPn/jwgOHdGPWwcXoIgOGecOeffBCGJI5/z9oKvqDRkSUoBZ9YlNam6vV+wo/1wrm7V+P+Jo/sp7dif3q0CII3OvbtRdeAgNQ0nOVHZmW5dY0AanXr1JCsCkOBkyUGy+g4kPwYEreg1fjKD8hyupCtRWPUNaw70Ymjvb68T1x/k4Onu9OmRAQRkXtWH/KP7ORIPOX38FK0LutEqgCC7N706N44biaP7OdxhAP3aRYAIbQZNZHzf7Cv3rZiSmp0zXZKaVuI4G746xug7G1NXeGYTH3zUjekP/ozh9TEiFet5d8lREglY//Ee5t7xcx6pOE3p4SOUhRECoH7vh/yxxxxmPD6PetKIl6xi6WnnvKQrUwMHVm/gzIjbG0NS4gRrl37O9OmP8fD4OGkc59Ola6kIQ9ixki+HzOXBecOoOLmPU0dDggDCqq/5cFl3pt/zJIMbAtJqdvLx4iqc9JLUXIKc3E6OOVITiRZO5fGRJTz/5hYaUl2MdMmL0H7cE0yueZXX1lZemSfIsQHMerIPm36zlP3xVBcjXfo8TitVvF9HkiRJkpLImS5JkiRJSiJnuiRJkiQpiQxdkiRJkpREhi5JkiRJSiJDlyRJkiQlkaFLkiRJkpLI0CVJkiRJSWTokiRJkqQkMnRJTShaOJV5cwcTS3Uh0mUhQvtx87h/RA5BqktJldgAZj09gx7RVBciXR48TitV7HNSqkR7cvNP72RQuxzaZdZTXlHFvuXP8MddXZjyL48wMFFBTRhy9tB6Vr73CcVVLfvvmAdZPRkzeyqDcqOEiSqKV73NRzvKadlVS5eTNPpOf4pJfVqTk5tOTVklZ7Yu4sUPS+h39//FrJ7lVNZFSJTvZe3yZaw/VN2y988gRlZedwaMvp2bC3fxym9XUJpIdVGSdHEMXVKqxItZ9ez/y6d97+IXo/bzwsvrOBsCUSBxmM9+N5+vyjMpGPcAc+6q5sWFa6hosWdIETqPnUH/o2/xwmtHSLS9nrsfuY0++95id22qa5OuFPXsfvff2J05lHv+pQ8b//1NdjVA46ASZ98Hv+aNzQ3k9J7MvXdP58xv32JHdUsdVALaDJnO1L417Ny5j7Juqa5Hkn4cby+UWrJENYc+/5TiTgPp07oF32AVtKGwO+zdcZwgqxWxqp3sPl1Iz07eEyW1LHEqi1ax5nhfBvRsydddQyo2L+b1t5ax+fDZlj0jJ0n/AEOX1NIlzlJVm0VWZksOXZlkZtRRV9+NCU/9N2ZdnaC2LoOsjFQXJumvhLVUVUFWVtqV+6ycJDUzQ5fU0sXa0CazijNnW/C13rCG6tp0MjOOse6tl/hkf4zMjBqqa1JdmKS/ErSibZuQqqo6Z5AkqZkYuqSWLMiky+ixdCv5hqIW++wFEFZQsj+kd/9cKkuKOJE2gP5tiykqjae6Mkl/IULrXuMYnruDLcUNqS5Gkq4YLfmGbunyds7bC1tn9uen/zT227cXApGu3PjIL7keqDu8jiXvbqKyBWcuSFD6xTtsmT2TR56MElDF7j++RVFdquuSriTnvL0wK50uT/+S8d++vRCiXDX5af63CRGoKuarN5dS1KJfchPQetAs7hnXjWgsh/Z5cOfPBlBbvJyFy3ZRn+ryJOkHMnRJqfLt2wtX/dUH+3j/f/4P3m/+in6UsOYAq1//DatTXYh0xfr27YV/45Ptv/8fbG/2en6MkKqti3lha6rrkKSm4e2FkiRJkpREQU5upxZ905IkSZIkXcqc6ZIkSZKkJDJ0SZIkSVISGbokSZIkKYkMXZIkSZKURIYuSZIkSUoiQ5ckSZIkJZGhS5IkSZKSyNAlNaFo4VTmzR1MrLkXHOQx6qdPc1PnlrtLRzrcxGP/+wx6RP/259HCqfz8J9fTKmjeuv6mzKHc/ctZXHWeWtVcIrQfN4/7R+TQErpFSsQGMOvp8+83yROh623/zE9Gtmm52z7ak0n/8jTjO51n3Atacd1PfsmkwhawI18CY/SVImXHaV3x7HNSykRoO+B2ZkwcTPv0gIZTW1ix+H12lCVSXVgTCMho35uOYREHTjWuT+LkZyz4d2iIJ2uRrel50x1MHlZAZiROxZ6PeffdDRxvSNLy/pO0Dj3pEj/EgbJ6/IvzSpW0/GFMmnUzfdqkEdQdZeP7b/PJ3jOXRZ+MZHWiMK+G/YfKG9cnvp8Vv34GGpI1ZqZ2jA6yulCYV8WhQxU00zAmKYkMXVKKBDlDmTqjO8UL/hcvH03Q/vp7ufPmfuxbvJOMq6cx86ZCYvEI6fV7WfHmMvZWhRDk0PuWOxjfO4sglk5d8UqWLttCeQgQkHftLO6b0oXctnF2LF3Ayr3VhEEb+kyczZhuURKxTMKDf+LdD7ZRnoC0zqOYPvVachJxIpEzbPvgD6w5VPcjViqd3F7DGDFyKN3YzxfLioB0ek9+mPE9cmifvZs3f7WU/fHGelv3ncKcyb0JT5/iRHmUCMcuetEZ/acye9ApFv3mFfbXtWHAzIeYMGQPb26oJGfA396eQWYho2ZPYUA2RNOhdPVi3ttQ2niCE2bTd9JPGNutA+2ixax49R22V4QEWT0ZM2sivTMSRDKjnFizmGUbjxMG7Rg4fSq31hexafVqthSfpv7it6T0w0XyGXHHJLI3PMuv150i0vVm7p55I932L+Nwu2FMmz2GDjQQi1Wz9b03+KKkhpAouYOmMm1sATHSSDu7nRWLVlBU1fiVsc6jmPVQD/Lzcqha+wa///wQDUTJu2Y6U0a0hzCD9NqdrHxnJcVVjfvHjbMn0yezgYYonF6/hPc2Hufir7VEyMzvz9DRIxnYsYZdH/+R/QS0uWYWd4zqRtv8gE3P/5pPSr8NQrFOXD/nbq5vU0XZqSPUZsHZi1zy+cfoHTS0P8/2bMIxuiKMkj9iLrdNrmT3ui9Yv/UgZ5J10UpS0hm6pBSJde9HwdENLCltDDkn173Cc+tCwiCT9lnlrH3zt+w8GVAw+Rfceu1qir4oI63fJG7vuoOFz62hImzLNTNncU3Bdj47CERzaVv1Bi+/eJzYwHt48ob+fL53E2HfiUxou4FXfreFs+Qw5N4nuKnvHpbsjNN95BgSX/x/LNhRT7R9f67NbU2EOn7wddwgiy5DJzBuRC/SDm3kq+Uv8uGJmm+vrtex94Nn2Zs5lLuf7PbnNpFOXH9rPw4v+TUfliTIv+kphuRe7NaM0qX3VZz55kUOVIdAOdsX/zs7wsbtmf03t2cFXW+6g6uPvM6CP5USb9WfiXcMo8e2ZewFgtYdSGz9DS+/H9Jj6j9x8+B27Piigi7jptNj78u8vPY0YWY/pj1xO4N2v8zm45tYtvBrsjoNYNiYOTx621l2fbmCL7aWUnc5TDOoxQta96JXXhFrN59svHBweBWvPBMShgHZOekc+fgllhZVEus/h6fGXM36kk3UZl/LpImZrHvuGXZUReg4ai43DupA8ZqTQJT22SdZ9PJyKrJH8sDPRtJj9R8oyryWiWPjfPbiC+yvjZA35nHm3ribZz84QFrfsQwqW8azy/YTj3VhwJDWZAXHOfOD94GA7B6jGXfTMAoaiti4ejEvFZ3+fsan4pvFvLQlj1GP3kf6Oa0y+k9gbOxLXnh2HWeyBnPH04Muenued4zm/Nsz0aRj9EHWLX6eja27MfCGscx5og1l2z7hky92UubUl3TJMXRJKRGQlplBUH2W2u9PRsLGkBLWcaYixg3THmV4vJ5Ibmsyt2USEKF99wLO7vuEMwmAcr55Z8F3XweJMvYXnaCBkET5Kc6mZ5IeRMju1p123Tsz99ExAEQyQ6rb5RDhFCf2HqDL7T/lzp7b2LX9G77ec/qHBy6ASD6DbhwE695kyZpiKv+RE4JIPvntStl6uHE+6FRJCVXdL2bhjTKyMqgprf7zbVTh39meAXQriHLwwxONJ3Jnd/LhKzsb22YCNSUUHaoDAk6XVZCelUkQJCjolkfH3vfw4DUhEJAeQEXbgMazygTVpVv5fOkhjoy7k5k3DmTrtlKOG7rUDIKMLDJqqqn5ficOCRt3AmoqzpA9cQ4PjIlTn55PRuIg6QHUd+5J55N7WXI2BOIcW/06fwAaH/mOc7xoLxUJCKtOcZpeZAQQ6VRIQbteTHjgZ437WCyL6Ik8MoID1B7eQ/mEu7gvaws7d21lx+biiwhcjcvvMmw8Pc+sYPEH6zlS9Y+MTBHadezA2UMrqQohrC6hpDRB3sUs/kJj9Hm3Z4TWTTpGnyQBxKsO8s2qdzhceguzZozmqg27KLu4jSophQxdUkqE1FdXk8jOJiuAyhAI0snKCqmp782E2f04vvAFPi+N02H8PO74bk+90BPtYUji3POSoPGfhyQo2/Q2C1eW/lWgqtjyJs/uy6ew99X0u/kxxhxbxIvvF/3w2+LiJax8/jUG3DCGOx+/jdPbV7Nm3dYLnyj953WJRH7Um32qq86SldOagDPfnwi2itRwNux3/u15AWEi8TeegwkhcZady57j/X1/fZ9PNKc7A0eMZXi/1pzc9hWvLdjG8cvhET1dEsKaKmoyu9A6Cnx7C29G6ywazkYYNGUanbbP57X1ZdBjGk/e8ud2wQUGlsS5g8p3O0QQkjjyOW8v+Kpx7DrXia947dfb6NyzL30GTefhsTt56/lVHP3Bt8XF2b30t9QNGcXY+39ORulm1nyxlj3fz6D/bUEQ/LlOAoKLfgvIBcbo6ozzb88mHqOJtaPndaO5YVgvYoc28slzH7PXwCVdknyNjpQiDSXbKW4/jGFd04EIbQbO4uF7biAvvRVZwSmOnayHaAd69+5ApPEyKSdLDtO6Vy9yIkDQliFz5nFrr7QLLCXByZKDZPUdSH4MCFrRa/xkBuVFIMiicORoCjnBvq8/5cP3NtDQqTNZF3mSEq86yJaVv+el595gfXknRt/zBBN6XuCtYfGTnKjsTLeuMSCNTr16knXuiJTWlWtuGk+/vH9kmIpzeOceMgffQM+sAIJW9LztMR4Y15VY7DzbM6zg0KEE3XvnEwOCrKuZ8tgdDLjQ6xPDMxw8WE/PAYWNtzSld2fE5BF0ikJG/xk8eNco2h37hN8/+zxLP9lC6VkTl5pPWLWHXUd7cN3Qxj4daz+C2Y/dwcDWmbTKrOfksQripNO1by9aB9+OKkeLOdKhDz1bBUCU/NEP8sC4rhc8OUgc3c/hDgPo1y4CRGgzaCLj+2YTENC27ziGdq7l6J4NfPbHD9id3pUOF3t5t+E0+zcs463nnuHdLbX0mPgw947tcoHaQk4fP0Xrgm60CiDI7k2vc98WGLSi8PpbGNHrH3sb5vnG6NxIxnm2Z9OO0UGbocx69A4Gphfz8YLf8Oofv2DPyQuHTkktlzNdUoqEVd+wfHFHps/+J36RHiFRsYNVi1Zz8mwW67eNZMJDDzC47Bi71q8jnDCFkTt/x5e7lrOs8C7mPHEd8SBGffFKlhZfeF6qfu+H/LHHHGY8Po960oiXrGLp6QSENZRXdmDGAz9jXH2CaLSavR//4a+vXP9QDRUc3PQRBzetJBaNEykYz93TBtM60oq8tum0f6I7tRXf8P7rn7H+4z3MvePnPFJxmtLDRygLI9+fDEW7j+DWYfDOF/9YcGnYt5xF62czZd5/YWoEaoo/YclHh2hoKD/v9lz9yWJ2zrqDR55IEEYTlH61mN1nw8bbC/+mBEc/W8TG2dN4+PE48VjAiTWL2BiH+J73WLAzfnG3Z0pNISxjw5J3yZv5E54aHSNInOCb995iy5kztF13iLnTHmbOiTKObPuSHQNvZOLQ3SzasJkPV3Rn2oNPMkG/p34AACAASURBVDIeJVK1jY/fOULiArEkrPqaD5d1Z/o9TzK4ISCtZicfL64iJORMWRWFMx9jSFhPGAs4s/49dtX+2PWqp7xoDR8VrSUajZCI9mbCI5PpFYuSnd8B5jxJ37rjrH/7LTbtWMmXQ+by4LxhVJzcx6mj4Z9nuzJ6c8Ntgzn+uz/9Q8HlfGP0qXiC7efbnhubbowO+Zp3n9tI3JQlXRaCnNxO7s5SE4kWTuXxkSU8/+YWX/H7o0TofMvPub32DRZ8ftwgc8WK0H7cE0yueZXX1lZemVf4YwOY9WQfNv3mu7d+6mLFes/iiZEHWPjahot8zkyXA4/TShVvL5TU8gRt6N6xlK82nDBwSWoCEfIL27Lni28MXJJSwpkuSZIkSUoiZ7okSZIkKYkMXZIkSZKURIYuSZIkSUoiQ5ckSZIkJZGhS5IkSZKSyNAlSZIkSUlk6JIkSZKkJIqlugDpcuJfur/0BK37ces90xnUJqSmrpyt77zEZ4fiQJSOI+5m9o3diDXUUleyiteXfM2ZsKnbpFpzref525xfhPbjnmByzau8traSK/KPSsYGMOvJPmz6zVL2t4TucikI2jFo5gNM6J1JvLaW42te5w9rT5Bwn24B+3TqeZxWqhi6pFQJ2tJ30p3c3LsVIemk1e/n80Xv8PWJlnDQ/uGCrJ6MmT2VQblRwkQVxave5qMd5Rc8UY51HsmMGSPJj4VQe5Av31nCNyfjEOTQZ+JdTOiXQxAmKN/6Hks+2Ud12MRtgIx+oxhcuZzfvLCF2nOLi3ThmlF5bH/lf/LpscRf1N1kbZprPS/QplnW8++0UVOJkjdkBtPHdic9DEiPnWXPijf5aHs5l+QWv1C/vVCz3GsY0bOEpf+2lP3nnlW7TzfLPt0SxnWpJYpmZGX/a6qLkC4XkbZ9GdatnI3bjv3dk5xIl/HcNaaSd+e/zidfrWE3gxhbcJrtJWmMevxRhuZ14/qbb+HGG68l58QO9pfVQ3oBI+f+hCmjh3PdqJFcRQm7D1eRiHRgzGMPM7RdZ/peN5xRN48hv2w7+8rqm2W9IUKXm3/CqMo/8Ls3V7Bhd5QRc4ZTu2kbp9uM4O5HRtOwfQcnGzLpOeVJZnU9wNaSDIbfPYW0lfP5/Ydfsq1mMLPGZbB9yxESvadx98Bifv/CH/h8/X7a3TqHXsfXUVSZx4imarO1ir4zHmba0G60a9+FqwZdx9DrutOwdycn82/i3rtvoXfHXPK792fQsOsZmHOcbSUhA2c2XZtT3acmfz0v0GZ/m/HNsp7nbbP/wqEcAlr1GE6fhm/YcriumfpyCxPJ5+rr8zi6bhflf28GIdqbW34yiAMLn2HpZ6vZWNKaa0fmcnT7EfIm/TOzrs6m15jbGHfTWPrFDrLzQCWJoBU9b3mAOZNHMuT6MVxXUEPx7lJqwijdJv8zMwdkUTBwBEPH3crQ1ofZUVLRbAEu1uc8ff1sZ8Y+8iD9T31NUXmC7IF388ikVuzdepTs6+/m7snX0LldB7r2Hcy1w4fRoXIr+1vd6D7dHPt0SYzrUzmubznC3xspfshxWmpKznRJKRJWnaI8bQh9euZzet9xyje8yWsAQR5h0JHO8cW8+MJhgqtm8MStw9m071PKW+cQ2fVHFm4soS5rGHc/OYbCDYsoSiRIBPnkVLzKqx+XE+t3F0/d0I9P9276yyuTyRK0obA77F12nCCrFbGqnew+PZ6enaLsLlnH+1/05u7JAzm++SpuzV/P4g+O0JB+HYVt97O+JE56qwzq927n6LQBdI1upKJnNyp2fUxlLIvM8BS79zYwrWcekWMFTdcmsp6tS55l/4hHeLD9ChYsK+H7a6QVf+K1F0qY8otxHF6wkM3nXFpvujYROt/QDOt5gTbhp82xnhduoyYUllNWnk23foXs2lxC2dFPeesNgAhdExG65p9h/oJnKM8YzB1P3cKATS/zdU0Ores2svS5zZTG2zP6sQcY2mULKw+FJBIROmQe5+23V1KTNYy7n7yBwi8OsrdZJhMidDhfXz9whC+XbOa+OyfS8+0DDB0f4YtX1nE6EcLaN1hQcgs/ndnAouc/4eT3Z9Xu082yT2ekeFyPrmeX9wyqhfJFGlKKhBUbWPTqaur7TODOnz7No/dNYVB+WuOHiXL27SmlAag/cpCT7fLJi0Ciqpyznccz96GHufuOkXRplUVm8O0XJso4dKjxuZd4VSU16ZmkB+dZeFMLMsnMqKOuvhsTnvpvzLo6QW1dBlkZACEV3yzl0/BWHpmRy/qlX3EyAUF6Jhn1tdS1H8OD//VBhmbXURtmkhkLyMzMoL4mTu+Z/wdPTbmKhupa0rMymrhNM22b82+0ZlrP87fRZSZxnC9feYOdGddwy31P8sRP7+Wm/u2INn7I8T17qEhAWHOYw+W5dGgXQKKSioZe3PLgI9x73wwG52WRmfHdwBHn5MGD1IQQ1lZSFWSQ0VxjygX2D4DEidW8u64905+YQHzVUrZWtoQg7z7tuC6dn91TSpmQ+hPbWb1sO6uJkH31HTx8xxhKn/8GSBAmvjuJ+O4sJ0L7G2YxLvNTXlywlaroQO74r9ed83Uh4bnnHcGfWyZdWEN1bTqtM46x7q2XSCuL0f36Gqprvqslk+xWUBtvRdtWUShLENZVU5vWhfSKr3jv5T1U1eRRGNRQ3RBSU11LelYahz5ZyNuJ46Rfk0nd2dombtNcG+d8mms9z99Gl6HqI2z5ZClbPoFo7nDuenQ2Qw4vpJSQRCL+7e2cAUEAIRDtdhMzhtfy7vMvUVLbiqE/+Tmdz/m6MEzVDVh/r99GaJWTSUN1QE67VgRUtYAXrbhPO65L5+dMl5QSAW2vf5Sn5gwhJwIQUl9XTxhLa7wSEmlHQfe2RIBY1260P1XKqQRkts6k6lgp1WFAVu/+FEQbT55SLqygZH9I7/65VJYUcSJtAP3bFlNU2viGqw6jZjHk+BJeeHMHPaZPpDADqCuhuKwHVxfUcKToMPFeg+h0aC+H4wlOFpeQffUA0k/uo+R0G/r3jbB/3ykSTdom1RutudbzAm1SvQnUpCKdJvDTp6bTK6txUEjU19EQiRGLAERpX1hIqwCCzK50aXOSE6dCyMomo/wox2tDIm360adLtIWcGFy436Z1v4XJvXbyh2ff4di1sxndOZrqgnGfxnFdugBnuqSUCCnfvIzV3Wfy4C9uIR4PiNSXsvmPH1GayKRnopya/FuZ+2A72rQJ2freh5wOE1RuXkvNnfdwb9fjlJVs46t9kxgzZTAH3z2c4vVJUPrFO2yZPZNHnowSUMXuP75FUR3Euoxn2qCDfPi7YqrrD/D+lp8y+7Z+LPzjLja+9xnTZj7O4xMhqC1h1eJNVIVA0Qo+6DmHO382jEgkpGzTYpYejkNY1rRtUqy+udbzfG10WUkcW83yzXcw+We/ZFJDA0FQw+E/LWVzeUgHElTEuzPp/qG0aZtDzZdvs706JL5/LRtunMm99/Wl7NQetn5Vxi233EKvIx9T8/cXmVTn2z+CjKuYMLUbO/7wEsfOxln1/gEennkL+178kMPN9e6gH1jzFbNPN9d6tuBxXTqfICe3k11UaiJN8vc/gjxGPXo/Ge/9B386mvLrllIK+Xe6mubvdEXoetsvuKXiRV75quLK3I7St/w7XUqVlnEXgSRJkiRdppzpkiRJkqQkcqZLkiRJkpLI0CVJkiRJSWTokiRJkqQkMnRJkiRJUhIZuiRJkiQpiQxdkiRJkpREhi5JkiRJSiJDlyRJkiQlkaFLkiRJkpIoluoCpMtDlPbXzmTa6I5QHyOtehsfLVrF/uow1YVJl6ZIG/pNupNxhWnUB+kkilewZPkOKq6gXSq9YBTTpwynTbyBWOw0m99dxNojdakuS7pEeZxWakUzsrL/NdVFSJe6IOd6Zt+Zx7oXFrJizUaOdprK9B4H2VBUicO59MNlXD2Te/ru4dWXlrJmYxFZN97LwDNr2XUqkerSmkckn9H3TiFc/gxvr1rLtsq+zJiYy55NJdSkujbpEuRxWqnm7YVSE4h0LqTj8b0Unw2Beo7tO0hmlwJaBamuTLoURcjr1pXKor1UJoB4GftLauncNffKOWilFdC17SGKDtYBITX7iziWX0CnaKoLky5NHqeVat5eKDWFMGy8UhbAny+ZhSQAgmyGzJnHhMIYJE6w5tUX+bK08Wp9tPttPDJ3GNkBNOxZyvx3tlEPEOvPlKdn0y8KYdVmFj+7jJI4QIQOYx7ivtGdiBDn0Mr5vL2honGRTdnmYmp2PS+iTTOt5wXaNM96XkwfaNyRvt+lAkiEV9r16IDgnBPCIPxuq9jXW25fv1LW8xIc1y90nJaaQZCT2+lKO4pJTS7IHs49T/Tjm/mvs7UqRsGkJ5la/xbPrzzigC5dhPT+c5k3+gALF6zmdJDP6Icfot3KX/H+voZUl9Y8Ih0Y89hDtP3417y/t47M/nfy2KhDLFyw+op6rk1qKh6nlWqGLqlJRMm9ZjrTx3YmqI8RqdjIB0u+5Eitu5d0UYIc+tx2Fzf1TKOeGLW7P2DpqiLOXkG7VFrnkUyfPpw28ThpHGfN0nf4+kQ81WVJlyiP00otQ5ckSZIkJdEV80yyJEmSJKWCoUuSJEmSksjQJUmSJElJZOiSJEmSpCQydEmSJElSEhm6JEmSJCmJDF2SJEmSlESGLkmSJElKIkOXJEmSJCWRoUvSlSE2gFlPz6BHNNWFSJKkK42hS5IkSZKSyNAlSZIkSUlk6JIkSZKkJDJ0SZIkSVISGbokSZIkKYkMXZIkSZKURIYuSZIkSUoiQ5ckSZIkJZGhS5IkSZKSKMjJ7RSmughJkiRJulw50yVJkiRJSWTokiRJkqQkMnRJkiRJUhIZuiRJkiQpiQxdkiRJkpREhi5JkiRJSiJDlyRJkiQlkaFL0pUhNoBZT8+gRzTVhUiSpCuNoUuSJEmSksjQJUmSJElJZOiSJEmSpCQydEmSJElSEhm6JEmSJCmJDF2SJEmSlESGLkmSJElKIkOXJEmSJCWRoUuSJEmSkijIye0UproISZIkSbpcOdMlSZIkSUlk6JIkSZKkJDJ0SZIkSVISGbokSZIkKYkMXZIkSZKURIYuSZIkSUoiQ5ckSZIkJZGhS5IkSZKSyNAlSZIkSUkUa4ovCVpfxY2zbqdfZgOJdDj2xSKWfX2CeFN8uXQFSi8YxfQpw2kTbyAWO83mdxex9khdqstqPpE29Jt0J+MK06gP0kkUr2DJ8h1UhKkuTLo0eZyWpNSKZmRl/+uP/Aq6T3yE60/9ngWLP2HjjpBr544h+PobjtU3SY3SlSWSz+h7pxAuf4a3V61lW2VfZkzMZc+mEmpSXVszybh6Jvf03cOrLy1lzcYism68l4Fn1rLrVCLVpUmXII/TkpRqP/72wqANBV0SHNh7nAYgrNrH/rJOdO3gnYvSRUkroGvbQxQdrANCavYXcSy/gE7RVBfWXCLkdetKZdFeKhNAvIz9JbV07prr/dDSxfA4LUkp1yS3F4YEEATf/38Q/PkeoGj323hk7jCyA2jYs5T572yjHiDIZsiceUwojEHiBGtefZEvSxMXbhPrz5SnZ9MvCmHVZhY/u4ySOECEDmMe4r7RnYgQ59DK+by9oYKwqdtcTM1N2qaZ1vMCbVzPZuoDBOfuUgQhXFl31jWubfDdfwWQCL/dAu7Tl1dfdz2T3wcSFz5OS5KSL8jJ7fQjR94o3Sb/E7fXvcHvVh4mnjOMuY/1Y8szb7Ct2kFd+sEiHRjz2EO0/fjXvL+3jsz+d/LYqEMsXLA6Kc80BTn9GX9LZw4s/4Sic/fZSAcGTxpH1jdLWHvoL5/8SO85jtv6nOLTFVuTUlN6/7nMG32AhQtWczrIZ/TDD9Fu5a94f19D0y9Muux5nJakVGuCma44hz5ZxPbZs3j4pw0k0ho49MEidjiQSxcncYK1Sz9n+vTHeHh8nDSO8+nStUl7iUSQ0Zm+1/bj7KpPKKo+94Nsug68jrYH3/1PoSsgltebIVdnsv7j5ISuul3LeL/HXdz1+DXUE6N29yKWFhu4pIvjcVqSUq0JZrokSZIkSefjU7SSJEmSlESGLkmSJElKIkOXJEmSJCWRoUuSJEmSksjQJUmSJElJZOiSJEmSpCQydEmSJElSEhm6JEmSJCmJDF2SJEmSlERNF7qCVlz3wFOM72SOuyQEeYz66dPc1NnfV4sVG8Csp2fQI5rqQlIlQvtx87h/RA5BqkvRPyBC19v+mZ+MbOPvq6XyOC1JKRNLdQH6AYLW9LzpDiYPKyAzEqdiz8e8++4GjjekujBJl6YIbQfczoyJg2mfHtBwagsrFr/PjrJEqguTJOmyYui6hGT0n8rsQadY9JtX2F/XhgEzH2LCkD28uaGSnAHTmHlTIbF4hPT6vax4cxl7q0IIcuh9yx2M751FEEunrnglS5dtoTwECMi7dhb3TelCbts4O5YuYOXeasKgDX0mzmZMtyiJWCbhwT/x7gfbKPc8TLqsBDlDmTqjO8UL/hcvH03Q/vp7ufPmfuxbvIOG9sOYNnsMHWggFqtm63tv8EVJDSFRcgdNZdrYAmKkkXZ2OysWraCoqvE7Y51HMeuhHuTn5VC19g1+//khGoiSd810poxoD2EG6bU7WfnOSoqrwtRuAEmSmomh65IRpUvvqzjzzYscqA6BcrYv/nd2hCFhkEl2Vjlr3/wtO08GFEz+Bbdeu5qiL8pI6zeJ27vuYOFza6gI23LNzFlcU7Cdzw4C0VzaVr3Byy8eJzbwHp68oT+f791E2HciE9pu4JXfbeEsOQy59wlu6ruHJTvrUr0RJDWhWPd+FBzdwJLSxn375LpXeG5dSEhAdk46Rz5+iaVFlcT6z+GpMVezvmQTtdnXMmliJuuee4YdVRE6jprLjYM6ULzmJBClffZJFr28nIrskTzws5H0WP0HijKvZeLYOJ+9+AL7ayPkjXmcuTfu5tkPDuC1HEnSlcDQdQnJyMqgprSa768Nh2Hjf4d1nKmIccO0RxkeryeS25rMbZkERGjfvYCz+z7hTAKgnG/eWdDYNgASZewvOkEDIYnyU5xNzyQ9iJDdrTvtundm7qNjAIhkhlS3yyHCSU+QpMtGQFpmBkH1WWr/PKh8O76E1FScIXviHB4YE6c+PZ+MxEHSA6jv3JPOJ/ey5GwIxDm2+nX+ADQ+IhzneNFeKhIQVp3iNL3ICCDSqZCCdr2Y8MDPGr8/lkX0RB4ZwQGqneySJF0BDF2XkOqqs2TltCbgzPcnLq0iNZwN+zFhdj+OL3yBz0vjdBg/jzu++81e6In2MCRxbooKGv95SIKyTW+zcGWpIUu6bIXUV1eTyM4mK4DKEAjSycoKqanOYNCUaXTaPp/X1pdBj2k8ecufWwYXGFgS5w4q3wWqICRx5HPeXvBV43IkSbrC+AqjS0acwzv3kDn4BnpmBRC0oudtj/HAuK7EYq3ICk5x7GQ9RDvQu3cHIo1TWZwsOUzrXr3IiQBBW4bMmcetvdIusJwEJ0sOktV3IPkxIGhFr/GTGZRnV5EuNw0l2yluP4xhXdOBCG0GzuLhe24gN5JBq8x6Th6rIE46Xfv2onXw7ahytJgjHfrQs1UARMkf/SAPjOt6wYNJ4uh+DncYQL92kcblDJrI+L7ZvuVQknTFcKbrEtKwbzmL1s9myrz/wtQI1BR/wpKPDtHQUM76bSOZ8NADDC47xq716wgnTGHkzt/x5a7lLCu8izlPXEc8iFFfvJKlxfUXXE793g/5Y485zHh8HvWkES9ZxdLTznlJl5uw6huWL+7I9Nn/xC/SIyQqdrBq0WpOxRNsX3eIudMeZs6JMo5s+5IdA29k4tDdLNqwmQ9XdGfag08yMh4lUrWNj985QuICESqs+poPl3Vn+j1PMrghIK1mJx8vrsJJL0nSlSLIye3UNMe9oBXX3f8wbT56hk9KPUGXfrTYAGY92YdNv1nK/niqi0mFCO3HPcHkmld5bW2lJ+jSj+VxWpJSxnvGJEmSJCmJmm6mS5IkSZL0V5zpkiRJkqQkMnRJkiRJUhIZuiRJkiQpiQxdkiRJkpREhi5JkiRJSiJDlyRJkiQlUdOFrqAV1z3wFOM7meOkJhEbwKynZ9AjmupCUiVC+3HzuH9EDkGqS5EuBx6nJSllYqlZbEDO0Lt5YHwhrdu2JXK2jDPH17Bo4accy7+Fx+eNJau8inhQx7FvVvDBqu2Ux1NT6V9UndWTMbOnMig3SpioonjV23y0oxz/0JmUepGOY7nn3lF0bJ1Lq7CCijMH+Pzl19lU2ZMp//IIAxMV1IQhZw+tZ+V7n1Bc1QL23CBGVl53Boy+nZsLd/HKb1dQmkh1UZIkqamlKHSFVG58g99uymPUY4/QZvmvWF7SmKoiQHhqDb//jw84mtaJYXc+yJwby3jxT0dJ7blIhM5jZ9D/6Fu88NoREm2v5+5HbqPPvrfYXZvSwiQBiWOf89q/fUnX2/6J22te5nefnmgcM6JA4jCf/W4+X5VnUjDuAebcVc2LC9dQkdLcFdBmyHSm9q1h5859lHVLZS2SJCmZWvQ9BmFtKZs+20bG1VeT9/+zd9/RVZX7/u/fc62VrJUKaaRBEnoTpEpHUaqEohQVC3b0/NzlnnvOPfefO+4Zvz/uGPeO8Rv77LPde6soKtgV6b2KCEjoPSSkJwTSe1ad94+Ast0mSszKCvB5/SMSnrW+z1zzeeb8rGfOmUBXakSS0guuXCrDCAnF1pBJVnUKafH37LVfInceXxPF331LXvwQ+oUF+qJFk9rT6/nsq+2cLmnUirmIiMhdLNBR5hf5GutpdIQSEujzI8OBw+7C5e7JtNf/gwWDfDhddkLsAa5LRG6Pr5EGZwghjkBPKiIiInKv6PKhyxIeSXhjPQG//cJspskZjMN+nWNffciBfBsOezNNzQGuS0Rujy2SSEcD9Y2BnlRERETkXtG1Q1dQHCMmDaLu/EWqA31zuVlLQb5J34FR1BXkUB40mIHd8si51gWe8CEiv47hIHHCJHoWnCWnSaFLREREOkfXeHrh0j/S9+bTCwEj+gGW/n4oPsND+dktrPu+LMAP0QDwce3QBs4tnM/zr1kxaCBry1fkuAJdl4jAT59e+CKv33/z6YWAJYnJz/8rYwBXyTE2bj5FXcAzl0HY0AU8MaUnVlsEMdHw+KuDcebtZM32y7gDXZ6IiIh0mMA+vfDkz/zo2l7e+Z97O72iX8NsLuTIZ3/nSKALEZF/0vL0wu9+5ie5bPtf/zfbOr2iX2LScH49q84Hug4RERHxt659eaGIiIiIiMgdzoiIig/4RTYiIiIiIiJ3K610iYiIiIiI+JFCl4iIiIiIiB8pdImIiIiIiPiRQpeIiIiIiIgfKXSJiIiIiIj4kUKXiIiIiIiIHyl0iYiIiIiI+FHHhS4jlBFPv87U+Hs3x1liH+Sl/20eqdZW/oFtMAv/bQkDbJ1altypbINZ8EYb+9Ndz0LMlBUsGxuBEehSAsWaxsw/vtH6vGqEMuKZf2Vmyj27k8jt0HFaRCRgAnb6b9iTGTNvIeNTw7CaTRQeWcfmw0U475hf1Wxgj+lLDzOHwkofAL6Kg6x+Ezxef71lGGkPPsasUck4LF5qs/eyefMJyjwd+SYWuvXqja0sh4rmO+bDEOmk8eFflpB4UqKbyS+uwQTw5rPnr2+Dx+evd6Tb4NnMm34fMcEGnspz7Fm/jUtVHft+QbFpJHqLKaxyo1lFRETuRQEKXVaSpz3BOO8OPvjTeeodfZjxzBxGZb3H4TKDmPvnM3dCD3DbCGq6wO51+8lvgtBRz/JMjzNkhE5ifKIFT8k3fLz+DI1E0m/6Qib2tOKzOTCLvmHzjgvU+CAoYTzpj95PhM+LxVLPhR1fc7TY1f7SjWCi+oxi7LiR9CSfQ9tzgGD6zlrO1NQIYsKz+PLPm8i/EbwsUfcz94lpxDurqCqtI+Q3fGVvH/goC4dWsu7vH5PvimTw/OeYNjybL0/UEpQ8nvQ5o4n0erDZqjm9eR0ZV11gTWHG61Op2VtK/2n3Eeat5eKmD/i22EdQwjgenTOcCJ+BPaiWM9vWcazYBWF9eXj2TKzFp8j4/gQ5FU6dKEmX157xYYmZynMLbBy9lMjk0TGY7mz2rNxKjtdK9LB05oyNAdNOsDOTfRv2kddgYoSkMXnhLPo5PHisUH18I1tPltH+71osOOIGMnLCOIb0aOby3i3kYxA5bAGPje9JtziDU+/9lQPXbgQhWzxjFi9lTGQDVZVXcYZAYzvf2YgYyaPzepG3+r/4qNRHzJgnefyhAeSuv4QrtDeTF8xmgMODLxiuH1rH9jPleAliwOO/Z1DeLlwjp5Ea7KXi+Gd8fbQcMySNiQum09fuw+KwUn50PdtPlmEa3RmS/iiPuHM4deQI5/Kqcbd7e4mIiNx5AhO6LLH0STPI2naJOh/QmMOulbmYpokRMZZZ02wcfecdLjXaSJz+GgsmX+adXcU4q6oJmT2F+LUf8PbXddz8LjZ4wHSmdTvBxx+co5EIhj/5Cg/2z2Zjppde4ybiO/QXVl9yY40ZyP1RYVhwcdvf4xohJI6cxpSxfQgqPsn3O99nV3nzjTDi4sqOlVxxjGTpaz1vaWQlZeIMYs9/yKpvy7D2TmfFyJB2bjQriX17U3/2fQqbTKCGi+vf5JJpYlrieGDuOOp3/J2v8904+i/kpUcfIHvVQap8VVTV92bSyHw+e+e/uHbzTMcSy5hHR1C15V02XPMSlDyL5+eM48qqA1Re2smXmXai+41m3NxXmObN4fj+/ZwqblT4ki6qneOjppLaHgsYm/8xq9/M4+birhF2P9MneTn4/irynRaiJ77MkslZrNxRSFD/SQyt2s7K7fl4bYkMHh5GiFFG/W0PDoPw1AlMeXAUyZ4cTh5Zz4c5ZLdiegAAIABJREFU1dxcmKs9u54Pz0Uz/oWnCL6llX3gNCbZDrNq5THqQ+7jsTeGtnur2XoNILn0BBuvtXwRVXHsY949ZmJipdfUx+hX/DEffnMNb/hIFr86myFXPuZsg5fqKhcDpw5k5+o32V55M25aSZqSTuqVj/gooxrTMYC5r8xmaNZHnC47xfY1ZwiJH8yoiYt5YUYjlw/v4dD5a7g0qYiIyD0gMKHLCMHhaKax8cejrWm2/NmSkEKPsivkNZqAm+u5RTgmJRNqFNPocuOqPM/xrLpbQpOFmJ696N4rgSUvTGz5G4dJU/cILFRSfqWQxNkv8njaBS5fPMuZ7OrbD1wAljiGTh4Kx75k49E86n7NJUtGOHE9oPRCJT7AV5jHVc/g9rw7APYQO83Xmn4MPqbZ8uegZJK6FXOiqOXEqTk/h+txg4i3QpXHg8vto/DU9z8GLgBrEj2TYohOf4neLS+CzZFPdwMqAUwnlVmH2Flawpi5i5k4/AJnivN+w7f5Iv7VrvFhuvH4rnLu+3xuvZrWEp9Ccvc+THv61ZbXsIVgLY/GbhTiLMmmZtoingo5R+bl81w6ndeOwAVgIXHUVNLq97B+x3GuNvyamclC9x6xNBbvo8EEs6mAgms+otvz9hgEOewYTY23XNZ9Y5sZkSQn+ijcWdYSAhtyya96mKRYC2cbfLhdLpqyjnGu8pYZwQgnuWc0Pfo+wbPDTMAg2IDabgYtG8hH07XzfLepmKtTHmf+5CGcv3CNMoUuERG5BwQmdJkNNDaFEhFuQFnLX1kcoQS5GvHcPFEy4Jazpx+Ckq+xnqafHKRNfFSdWsuafdf+KVDVnvuSlblxpPQdxICHXmLi9XW8vy3n9i9t8Raw771PGfzARB5/eQbVF49w9Nj5XzhRMvmHpSHD8pseCNDU0EhIRBgG9T+cCIZamm9cWmRg3PLixq1vbTbR2PDTuGRienI4sPozLv7TxrAQkjCE0RMmMDimlssZn7P6fKECl3Rp7R4fvgYafnr/omHiu/oda1d/T91PQ0H593z61wskpPWn39B0lk/K5Kv39lN62wPES9amt3ANH8+kZf+C/dppjh7KIPuHFfSfZxjGLcX/Y79uj4m7qQlfeDghBi39NIIJCTFpbgITg1tf3DD+saqm+oaf1GmCr5HM7e+yLfefN4Y1ohdDxk5i9IAwKi58z6erL1Dmr1vVREREupjAPMLIV0H25Wb6jRlCpAUMexKTlr3K9D7B+ErzudZjIH1DDSCIhL49aSgsovVnOvioKCgipP8Q4myAEUqfqbMYGm0BI4SUcRNIoZzcM9+ya+sJPPEJ7b6vyttQxLl9X/Dhu59zvCaeCU+8wrS0Np4aZjZQUWkhMTkKCwaOPv3peWvMNUJJGfMwY/v8mqezeSnJzMZx3wOkhRhghJI24yWenpKE1V1EUXUv+qXaAQNH737EleZzta2TQE8Jhdd7Mah/GAZgix3FIxPTCMZKr2kvsnRqInXHv+D9dz/nm9OFv25lTyRgOnZ8+ErzKYkdzIDuFsBC5NDpTO0fjoFBt/5TGJngpDT7BAe37CArOInY9n595akm/8R2vnr3bTafc5I6fTlPTkpsY2I2qS6rJCy5J6EGGOF96ZNw6782iOw/iSmjeuH4FfOcp+AieTGjGJUU3NLPIQtY/sQDRBm1FBdDWr94bIAR3ofUyBIKr7eRksx6iorcpA1OabkcMrgXY2eNJd4K9oHzeHbReLpfP8AXK99j04FzXGtU4hIRkXtHgB6k4aP04FccTF/As3+YhQUXpRnr2HTFhWmeYsfunqQ/+yqj3TYstcfZvLEUH60nRPeVXWxJXcy8l1fgJghvwX42VfvAbKamLpZ5T7/KFLcPq7WJK3u//udvrm+Xp5aiU7spOrUPm9WLJXkqS+feR5gllOhuwcS80gtn7Vm2ffYted/tpnLpc7w8sJqqomtcbQr/sR/2vjww4z7KPvjmV90r5cndybrjC5mz4n/nUQs05x1g4+5ivD7I2PQd6ekvsXyqlyDK+HZTBrVtvahZwYkt+0iY9wIvTHBjtdRxdtvXuPFS8u37fOi3RzCK+EdHjg+z4Qy7tvci/YnXuM9jENScyd71DZiY1Fc1kDL/JYabbkybQf3xrVx2/sbiTTc1OUfZnZOB1WrBZ+3LtOdn0cdmJTwuFha/Rn9XGcfXfsWpS/s4PHwJz64YRW1FLpWl5o8LUkYEAyc/Qu+Lf+Hgr5hUzIaz7Fzfg/SFv+d3wRZ8tZfYv+4IlT4vVQfWcXHhApa/6MEX5KF4xzouNbVcNvjzfJQeXMfJhXNZ/rIXr82g/Og6TnrBm72V1Zne9l3aLSIichcwIqLiO+aKeiOUEcuWE7n77R+fsiVtsvVdwCvjClnz6Yl23hMidzXbYBa81o9Tf//xaZj3FgsxU15hVvMnfJpRp4e4/BqO4Sxa0Z/Tb60l+7cGQbn76DgtIhIw+g2JAWMhLqUb2YfOKnCJSIewJaUSfOogOQpcIiIiXUrHrXSJiIiIiIjIP9FKl4iIiIiIiB8pdImIiIiIiPiRQpeIiIiIiIgfKXSJiIiIiIj4kUKXiIiIiIiIHyl0iYiIiIiI+JFCl4iIiIiIiB/ZOuyV9Jvuuy6jO0PnP820vg68TidlRz/j64xyfEBwrwdZ/Ng4YnDhbL7M7lVbyfEEuuCO12o/29g2AWcbzILX+nHq75vI9wa6mECwEDPlFWY1f8KnGXXoFwreve7I8dmROmuO1nFaRCRgOi503aagxPGkp48l1mpiCTaoPbuFDftzaOzCZ1ZGSBoTFz7K0Cgrpq+BvP1r2X2pps2TwdbbWIgaNo95U1JxmCbu8gy2bThCqauNNkYE/aYvYtqACAzTR835rWw8kEuTCbaEccybN444mwnOIg5v2MjZipYzdSNqGGPTCtj035vI/4eDtZWUMROxHHqTN4/9mpPadtTcWf1so01b/Wx923Tc5ymdwwhJY9LCRxnczQCbHcqOsHndIa525c+gzf329tvc/vjopDFNMAljFjBnXBJBhhXqLrD36x1k15m0Z3x23X621sbAkTKFeY+OJNpqYPGWc2bbWg7lN2G20c/bn6NFRKSrstpDwv+zQ17JCCJh2AjsOcfJb/ilQ4ODIelPEn/qLT7a8h3HTpURO34EwbmZlFlH8cT/eJCE6JFMfvghJo9OoD7rMuVOg8jB6SxZPJ1RI8fxwPAYqrOuUOUG28DFvD67N6G9hzFyzENMGWqh4EJxBwc4C4kPPcP4uq/54Ms9nMiyMnbxaJynLlAdOZalz0/Ac/ESFR4HaXNeY0FSIefzG4lvpU2V437SFyVy5v1VbD90koqU+cyKy+FMQTMJrbSpTZvL0iF5fLHqa747nk/3RxbTp+wYOXXRjF06h6B97/DFrsNcaL6PBVPsXDx3jcixS1k6axgJ3WNJ6n8f948eRWzdeXLq+vLI8sWMS42le0IaA4eP5v5+QZRcLKKRCPo+8iQLZ4xn1LiJDI1rJP/KdVyht19z5/TzKr6+rbRp6t9KP0sIHdPKtqmEqKHpLH7sYUaNnsDYwZFUX8mlyt36PtB6Pxvbf6JkiWPQmGhKj12m5p482zIITR1NP89ZzpX8UnIyiByzhNn2fbz38XYyMs7QmDqVfp5L5FR1Y8LLLzAyuidjHnqYyZPvJ6L8EvlVbqyxo5i3bBGTRo1i7ANDcVzPpKjGgxEyiidee5DEqP4MGTWBqZN705ydSZmzY3to69fKftuYwKTnn2Vg5RlyanyED1nK8zNDuXK+BE9r+3o7xkeud3injOmq0BHMmRPO9++vZtehY1xLmM2MhAJOFSXx8O2Oz6ruXbefrbUpCmPs4w/i2rqSr/Yc4lzdANKnhnHpdAkR7Zmj2zsf3NZxWkREOlKAVrrc1FQ10b33QBLzz3O1Jpf9H+W2/MhhQmRPgjP/wpptHnpMe41F45PJ3FVOeEgNGV++RWaFQfKs3/HI/UfIOVSF6TOxxxrkffE133himPDS0wxPPMbe4g68fMKIJKUXXNlehhESiq0hk6zqqaTFW8kqOMa2Q31ZOmsIZad780jccdbvuIrH6N5qm5zg3iReu8BGp50Qh5fSzDzCJqXhOORppU0QdWk9qb28lzpbCA6zkqwrHuamRWO5nkxKt3yOF3gJDrXjvnKR0rmDSbIe53LG56wueJgX53tY994BKn7YJJfZ8/4VSpb+OwNPr2R95o/XrwUPnMnspEusefcotWY3hs1fwLDkixy2327NndXPk9S21qaw9X7SyrYxwkcxc7qDY+++zaUGCz3GL2Hy0FjyMty338/vyrv06u3dw8RZXYXvvn70SSgh+1o9l7Z8wCUAIxTT6EGCdz3vryrB6D2PVx4Zzancg7gjgrm690M25dS1fHkzcRDHC07RbJrQPQbnybfYfR2SZv6OGUO7c/FQVQeuNliIbXW/vcrhjad56vHppK0tZORUC4c+Pka1z0JCB44PW6eMaStZBcf58u/HW7ptiyS6m0FNVgOm++ptj0/sg7tsP1ufB45xaNVbLfUbdrrFhOOurqTZ9FHTjjlaRETuPAF6kIaXwt2r2F4Yw8hHl/PSay8xf2Jvwo0bP3bmk13gBLxUFJVij40lyHRRX2tj8NwXWPb000zrH4bD4eBmE9/1QordgFlHXX0wdrvx82/dXoYDh92Fy92Taa//BwsG+XC67ITYAUxqz27iW/MRnp8XxfFN37ccONtoY9gdWJxO7MOf5I8vP0ScqxmnPQR7G20cDjvuZi995/87r8/pjafJSXCIHSPYgd3txBUzkWf/7VlGhrtwmg4c7YrUFmJ6JdOYm0u9DzBrOLthNQcLve2quXP6abTapl1bICGNhIor5DeagJfrRz7j66Nl+NrTz3ZVIO3hvLSBj/dWkjRhEc+seJ1l6Q+Q6LgxD/hqyM2+hgdwXy2ionsc0RaT5tp6wscu5ulnnuPxSanYHQ6CbzQxG4sprvACPhrqGgi+Zb7pGG3vt77yI2w+FkP6K9Pw7t/E+TqzzTbtGR+dNaZbWEiY/BJ/+I83mGo5zL6zte0KsF25n780D1h7z+aVf/8/eW5kDQf2ZdHBC6ciItKFBeyeLnz1FJ3YTeEJICieic8+z/TKP7E+DzB9+G4ejQ0DwwQzaADTFg6gbM0qvrvmJXbqCh67tXrT18EnRD9hNtPkDCbMfp1jX31IUJWNXmOaaWq+WaeD8FBwekPpFmqFKl+bbUxfEz6HA3fWTj4ta6bKPgW7s5LmNto0NzkJDgmi+MAa1vrKCB7mwNXoxHQ14QxKJLj2e7Z+lE1DczQpRjNN7b7ZurVNcPs1d04/zVbbtJfxcxuhPf1sdwVy+9zU5Bxhb84RMBz0mvkKj0+7xlvb6wAf5o+Tyo3/hDN0zlziL77Dp8erIHUurz186+uZfr6H5pf2WwuhEQ48TQYR3UMxaMBso017xkdnjekWPkoPvsefD4fRc+rTLJ5TxbubsnDf7lbrwv38pXnAm7udlf/fbiL7zeaJZY9Q9dYurup5FiIi94TArHTZejPrd68yNSm45f+9Ltw+CzbbjXIcyfTqYQOsxCbH01hWhtcWSohRyfUKN1hj6ds3Fot/Y9Y/MmspyDfpOzCKuoIcyoMGM7BbHjnXvC11jl/A8LKNrPryEqnp00mxt93GdzWH4h5D6ctV8ooaSRicRl1OHk5fa23cVOQVED5oMMEVuRRURzKwv4X83Ep8rgLyqlIZlNzM1ZwSvH2GEl98hZJ2XY3io6KghLA+fYiwAEY3hi9ewSN9gtpRc2f109d6m/ZsgdI8rsb2Iy3UAKzETXiWp6ckYWnP56lLCzuHEcLgxf/KU+NiW75JMj24XD6CbEEtP7d0J7lXNyyALaknMZXXqPTZCXW4qbhei5dgkvr3IczozFml7f02qNfDzOqTydcrN3D9/oVMSLC23aYd48PTKWPaiyVpOq+8NpuewYC3idqaZuwR4djas7G7cD9bbWPtz5w/vMyEOCvgobG6BndYBKGdeAgTEZHACsxKlyePQ9tySF/4Bv9i8eC1QMOVrWy71Aw2MJvqCB/zBE/FdiPSWsD+z0vwNtdw/MI4pj33NPdVXefy8WOY0+YwLvMDjnZK0T6uHdrAuYXzef41KwYNZG35ihwX2BKnMndoEbs+yKPJXci2cy+ycMYA1my53Gob03WO3btSmf/0G0ywGHhKD7HlaAU+aL1Nzh52pC3m8VdHYbGYVJ1az6YSL5hVnNx6kLnzX+bl6WA4C9i//hTtvU/adXkn21MWsfiVEXgNG+68fWzKc2P62lFzZ/WztTbtYNafZteeXsx99jXGea1YGi6wd8NVfJjt6qd0ArOJy3t3kTr/GVaMM/H4LJjVF9i8MQcv3cFXQ3PcIyx5tjuRkSbnt+6i2tfMxWPFLJm7nMXlVVy9cJhLQyYzfWQW6y50TtnuVvZbw96baY/25NLXH3K90cv+bYUsn/8wue/voqQDx4dpdtKYvnqYXZmLmPP6H7H4rNicBRzYcK7tpzS2piv3s7U2niq+29mf+Uv/wP2Gic1Sz5Wta8nVbVoiIvcMIyIqvmO+i++o3//hGMnSf0kh488bdECSe5t+T1fH/J4uI5rxLyzDvvVvfFOqGCz3MP2eLhGRgAnQgzRERERERETuDR230iUiIiIiIiL/RCtdIiIiIiIifqTQJSIiIiIi4kcKXSIiIiIiIn6k0CUiIiIiIuJHCl0iIiIiIiJ+pNAlIiIiIiLiRwpdIiIiIiIifqTQJSIiIiIi4kcKXSIiIiIiIn5k64gXMcJ6M3nBbAY4PPiC4fqhdWw/U463I15c5B4UnDye9DmjifR6sNmqOb15HRlXXYEuq/NYIhkw83GmpAThNoLx5e1h485L1JqBLkzaomNB16XPRkQksKz2kPD//I0vQa/pzzOm8gtWrz/AyUsm9y+ZiHHmLNfdHVKjyL3FEseEJ+dg7nybtfszuFDXn3nTo8g+VUBzoGvrJPZB83mifzaffLiJoydzCJn8JEPqM7hc6Qt0adIqHQu6Ln02IiKB9tsvLzQiSU70UXilDA9gNuSSXxVPUqyuXBRpl6BkkroVk1PkAkya83O4HpdMvDXQhXUWC9E9k6jLuUKdD/BWkV/gJCEpStdDd2U6FnRd+mxERAKuQy4vNDHAMH74f8P48Roga68ZPL9kFOEGeLI38c6GC7gBjHCGL17BtBQb+Mo5+sn7HL7ma7uNbSBz3ljIACuYDadZv3I7BV4AC7ETn+OpCfFY8FK87x3WnqjF7Og27am5Q9t0Uj/baKN+dtI+gHHrkMIw4d66sq6lt8bNPxngM29sAY3pLruvt+tYcAf28447fvna/mxERMT/jIio+N8481rpOev3zHZ9zgf7SvBGjGLJSwM49/bnXGjSpC5y2yyxTHzpObrt/SvbrrhwDHycl8YXs2b1kXvmnqbggUtYMaGQNauPUG3EMWH5c3Tf92e25XoCXZq0SseCrkufjYhIoHVA6AIjJI2JC+cwKMSDL8hD8YF17L5Yje6+EGmfoIRxpKePJtLrJYgyjm7awJnye+iWdyOCfjMW8WBaEG5sOLN2sGl/Do06P+zSdCzouvTZiIgEVoeELhEREREREfl5uotWRERERETEjxS6RERERERE/EihS0RERERExI8UukRERERERPxIoUtERERERMSPFLpERERERET8SKFLRERERETEjxS6RERERERE/EihS0RERERExI8UukRERFphTXmUFUvuwxboQkRE5I6m0CUiIiIiIuJHCl0iIiIiIiJ+pNAlIiIiIiLiRwpdIiIiIiIifqTQJSIiIiIi4kcKXSIiIiIiIn6k0CUiIiIiIuJHCl0iIiIiIiJ+pNAlIiIiIiLiR0ZEVLwZ6CJERERERETuVlrpEhERERER8SOFLhERERERET9S6BIREREREfEjhS4RERERERE/UugSERERERHxI4UuERERERERP1LoEhERERER8SOFLhERkVZYUx5lxZL7sAW6EBERuaMpdImIiIiIiPiRQpeIiIiIiIgfKXSJiIiIiIj4kUKXiIiIiIiIHyl0iYiIiIiI+JFCl4iIiIiIiB8pdImIiIiIiPiRQpeIiIiIiIgfKXSJiIiIiIj4kRERFW8GuggREREREZG7lVa6RERERERE/EihS0RERERExI8UukRERERERPxIoUtERERERMSPFLpERERERET8SKFLRERERETEjxS6RERERERE/EihS0RERERExI8UukRERERERPzIFugC5N5lhPVm8oLZDHB48AXD9UPr2H6mHG+gCxO5QwUnjyd9zmgivR5stmpOb15HxlVXoMvqPJZIBsx8nCkpQbiNYHx5e9i48xK1ZqALE7kz6Tgt0nGs9pDw/wx0EXIvstJr+vOMqfyC1esPcPKSyf1LJmKcOct1d6BrE7kDWeKY8OQczJ1vs3Z/Bhfq+jNvehTZpwpoDnRtncQ+aD5P9M/mkw83cfRkDiGTn2RIfQaXK32BLk3kDqTjtEhH0uWFEhhGJMmJPgqvlOEBzIZc8qviSYrVLinSLkHJJHUrJqfIBZg05+dwPS6ZeGugC+ssFqJ7JlGXc4U6H+CtIr/ASUJSlA50Iu2h47RIh9LlhRIwJgYYxg//bxg3rwGyEDvxOZ6aEI8FL8X73mHtiVpMANtA5ryxkAFWMBtOs37ldgq8Hd/G2msGzy8ZRbgBnuxNvLPhAm4AI5zhi1cwLcUGvnKOfvI+h6+1fIveoW06qZ+ttlE/O2kf6OB+Ytw6pDBMuLeurLu5FW78yQCf2fJ3GtN32b7eZef1u6ufrR+nReR2GRFR8RpBEgBWes76PbNdn/PBvhK8EaNY8tIAzr39OReatEuK3DZLLBNfeo5ue//KtisuHAMf56XxxaxZfcQv9zQFp01hRr9Kvt1z/h9f3xLLfTOnEHJ2IxnF3l/XpqNqGriEFRMKWbP6CNVGHBOWP0f3fX9mW66n499M5K6n47RIR9JKlwSIl+ID67i4cAHLX/TgC/JQvGMdlzSRi7SPr5yMTd+Rnv4Sy6d6CaKMbzdl+OkhEga26L4MH+Tg+N6fBCgjnKQhI+hWtPknoauNNh3EdXk721IXsejlYbix4cxax6Y8BS6R9tFxWqQjaaVLRERERETEj3Q3pIiIiIiIiB8pdImIiIiIiPiRQpeIiIiIiIgfKXSJiIiIiIj4kUKXiIiIiIiIHyl0iYiIiIiI+JFCl4iIiIiIiB8pdImIiIiIiPiRQpeIiIiIiIgfKXRJYBmhjHj6dabGa1cU6RC2wSx4Yx6p1kAXEigWYqasYNnYCIxAlyJyN9BxWqRD2AJdgIgETlDcKGYueIh+kUEYrlJOblvLgSv1mIEuTETuSIY9mTHzFjI+NQyr2UThkXVsPlyEU5OKiNzjFLpE7lWWOMY+NpPwEyv567FKLEkPsXT+ZHrmb6fI3pvJC2YzwOHBFwzXD61j+5lyvAQx4PHfMyhvF66R00gN9lJx/DO+PlqOGZLGxAXT6Wv3YXFYKT+6nu0ny/AEup8i0kmsJE97gnHeHXzwp/PUO/ow45k5jMp6j8MV4QyY+ThTUoJwG8H48vawceclak2D0FHP8kyPM2SETmJ8ogVPyTd8vP4MjUTSb/pCJva04rM5MIu+YfOOC9T4At1PEZHbp9Alco8ywvrQJzqHjNMVLcGoZD8fv21imlZ6zXiMfsUf8+E31/CGj2Txq7MZcuVjzjZ4qa5yMXDqQHaufpPtld4br2YlaUo6qVc+4qOMakzHAOa+MpuhWR9xul5fcYvcEyyx9EkzyNp2iTof0JjDrpW5mKaJffAsZsVd4MN3j1JrxDDuuReZ2u8Km7PcOKuqCZk9hfi1H/D213XczFTBA6YzrdsJPv7gHI1EMPzJV3iwfzYbM12B7KWISLsodIncowx7CPbmJpp/+NbYxDQBI5LkRB+FO2+sUjXkkl/1MEmxFs42+HC7XDRlHePcD4ELMMJJ7hlNj75P8OwwEzAINqC2mwEKXSL3BiMEh6OZxsYfx7xpmoCF6J5J1OXsbQljVJFf4GRYUhSWrOuYLjeuyvMcz/oxcIGFmJ696N4rgSUvTGz5G4dJU/cILFSgxS4RudModInco8zmBpodiYRZAS+AgT0sBE8jmBhg/PgYAsP4x+DUVN/wk/u+TPA1krn9XbblehGRe5DZQGNTKBHhBpS1/JXFEUqQqxluzBjGzT8Z4DN/nEV8jfU0/eT7GRMfVafWsmbfNYUsEbnj6VE0IvcosyGby6WpjBgZhw2wxYxl4UuPMSS0juJiSOsXjw0wwvuQGllC4fU2TnvMeoqK3KQNTiEYILgXY2eNJf6efYKeyD3IV0H25Wb6jRlCpAUMexKTlr3K9D42KgquEtG/P5EWwBpD75QgrhZWtRGmfFQUFBHSfwhxNsAIpc/UWQyN1mmLiNyZtNIlcq8yqzixcTPR85/h9Qk2DF85Z7d+xbkGDxxYx8WFC1j+ogdfkIfiHeu41NRy2eDP81F6cB0nF85l+ctevDaD8qPrOKlFL5F7iI/Sg19xMH0Bz/5hFhZclGasY9MVFy62sy11EYteHoYbG86sdWzKa/sxO+4ru9iSuph5L6/ATRDegv1sqtaal4jcmYyIqHjdcCGBY4QyYtlyIne/zYFrOpiK/Ga2wSx4rR+n/r6J/Hsy9FqImfIKs5o/4dOMOv36A5HfSsdpkQ6hdXoRERERERE/0kqXiIiIiIiIH2mlS0RERERExI8UukRERERERPxIoUtERERERMSPFLpERERERET8SKFLRERERETEjxS6RERERERE/EihS0RERERExI8UuiSwjFBGPP06U+O1K4p0CNtgFrwxj1RroAsJFAsxU1awbGwERqBLEbkb6Dgt0iFsgS5A5NcLon/668zsF0ZEVDDNVXXUn1/H+7vKKPsbAAAgAElEQVTyCBn7Ar+f2YOaeg+Gu5ys77ay5/R1PJ1Wm4WoYfOYNyUVh2niLs9g24YjlLo6rQARuW0GESOX8vTUFMK6dcPSWEV92VHWrfmW63EP8/KKSYTUNOA1XFw/u4cd+y9S4+282uy9JjNv7ljigsGov8zetVu5VOPrrAJERKQDKXTJHcRN1ub/Jssxkif+2I+Tb37JZQ9w4/vsxvNf89b6y1iihzHnmWd4pOYv7Mhzd0plRthwpj8cwvF3/8L5hiB6zV7BnAey+fBgOTpFEumqTOpOfs5bp6IZ/9LzRO78MzsLWlKVBTArj/LF33ZQGhTPqMefZfHkKt7/prRzxrQlgfHzRlO/7W+szXUTNX45T88YTO5X53F2xvuLiEiH0lqx3HXclec5eKKR/oOT6awrrCyJvUm8doFsp50Qh0lpZh5haWk4dH2TyB3PdF7j1MEL2AcNIrqzjpqWGGIjrpJb2IyJl6rMTGqSU+lxz142KiJyZ1PokruQj8aGRuxhIZ12T4dhd2BxOrEPf5I/vvwQca5mnPYQ7J30/iLiX77GehodoYR01qTiu8616p4M7BeOQRDRfXsTY7cT1ElvLyIiHUuXF8pdyEJEZARNdQ2YnfSOZnMTPocDd9ZOPi1rpso+BbuzkuZOen8R8S9LeCThjbU0dNak4rvO0Y0HmTX7eV6e0kBpViUV9Y00ddb7i4hIh9JKl9x1rN2GMHGElUvniumse959V3Mo7jGUvlwlr6iRhMFp1OXk4dQJksidLyiOEZMGUXf+ItWddpNmMFHRHs6u/RsrV67mkDMG+5VMynSTqIjIHUkrXXIHueXphSHBJL7xr0y98fRCgNChi3gt1Y3FrCZ7/6d8W9xpjxnDbDzH7l2pzH/6DSZYDDylh9hytEIP0RDp0n7y9MKlf6TvzacXAkb0Ayz9/VB8hofys1tY931ZJ45pN42eeGY+8wYzDAu+8gy2bijsxCeyiohIR1LokjvIjacX/sxP6jNW8f9kdHpBt/BRc2ETay4EsgYRuT03nl548md+dG0v7/zPvZ1e0Y9M6jK3siYzgCWIiEiH0eWFIiIiIiIifmRERMXrrhMRERERERE/0UqXiIiIiIiIHyl0iYiIiIiI+JFCl4iIiIiIiB8pdImIiIiIiPiRQpeIiIiIiIgfKXSJiIiIiIj4kUKXiIiIiIiIHyl0SWAZoYx4+nWmxt/tu6KVgYv/L54ZG4Hxsz+3EDNlBS9MidWglN/GNpgFb8wj1RroQgKlZSwta3Ws3S0MQkc9z/+x9D5srfwLa8qj/MszYwi9uzeE+Ns9c5wW8a/W5mqRLikobhQzFzxEv8ggDFcpJ7et5cCVerrcb/i2RpCYEkF1XglNJoCXrPX/L1d8Lr/V2mHbxoggsXc4NXlXafT5o1KRrsOwJzNm3kLGp4ZhNZsoPLKOzYeLcHa5SSWIyJRkgq/mUe4GMGk89RF/OuPD46d37LhtY6Fbr97YynKoaO5yG1ZEpFModMmdwxLH2MdmEn5iJX89Vokl6SGWzp9Mz/ztlPRdzBtjGjnlTaR3dDeCrx/g63XHKPdFM/6FZdi3/o1vSn1Ykmfy8oxaPvvwCLVE0H/mYib3tOL2WfGVHmTL9vPU/IZzAmt4MoPGTGTUoEhqTu1iZx5Y4sazcP4IYqN70Lj/T3ycUdcShAwHvaY+yaP32amrqqDSGwwlXWDbrD6HPXkqS2aEUn7+KBnHL3K9SelL7kZWkqc9wTjvDj7403nqHX2Y8cwcRmW9x+H6ETzx6gDKLweR1CuKCPLZ99lGLtYaJM34HQ/Xvs/H39diWvuT/scx5Pz5Uy54LEQPX8Cj4+LADVZXDgc27CG34TdMKrZIeg0fzwOj+mG/eoQ9JXlgTWHysjn07x5Lj2sb+F9fnLsRvAzC+s9h8ay+mNWVlNdYsXC9C2ybzygO68vDs2diLT5FxvcnyKlwdr0vy0RE/EihS+4YRlgf+kTnkHG6ouUEo2Q/H79tYppg9ZnYekZS9uYqvmmMZMxzK5jY5zQbs9t4vW7DGZ+Sw8b3vqHCDCF5+EBC7QY17fgm1ho1kPEPTWFIbD1ZGd+xfmUhdd4bPyw7wtfvHSVpxhtMu/X9I0bw4OgG9v/tQzKdkYx+7g8k3/Y733itjtw2Zj15335O3uHupN4/gYeenUbQ1ZN8t/8QeXU6TZK7iCWWPmkGWdsuUecDGnPYtTIX0zTBYUJkT4Iz/8KabR56THuNReOTydzZxjcjlgTunxzBuQ9XcqoBIvqMJjnUAg3e1tu0JiiOwVMeYdzACKouHOa7T3ZT+sPScwEH17zN4f6L+N2IW98/njGPDKBk41/ZVeAj7sHXGR51+2/d8loduW1Mai7t5MtMO9H9RjNu7itM8+ZwfP9+ThU3KnyJyD1BF+jKHcOwh2BvbqL5h0WXllBxk7f4MjmNJph1lJQ4iYoLb/OeDrM+nzzfWBYvW8iDo1NwZ53harsufTEIThvHuPhSDq1fzzenbglcbbDExhNdUUCJs6XmooIK2rue1NHbBgBPNfnHd7Bp0yFqUh9kZE9NF3KXMUJwOJppbPxxsJi3DhxnPtkFTsBLRVEp9thYgtp6PbOK/NxIJj+7jNlTRxJXc47MsnYELsASOYjxo8PI3f0VWw+cuyVwtdUojrju1ygqcQNeKgsKaGj3pNLB2wbAdFKZdYid6zZz1juEicN76CRERO4ZWumSO4bZ3ECzI5EwK+AFMLCHheBpaGz5B74fg4ZhMVr59tTyY9jwFPHtqv/mTFJf+g4YwYJXJ3B89YecqLzd4GXSdOpzPqgbxdhZLzLezOP04cOczq3C/QsvdWvwMYz2n350+LYxHMT0H80D40eQ6Mrh1Ja/cSavfSePIl2W2UBjUygR4QaUtfyVxRFKkKsRJ4Dpw3dzsBgGhsmNsXPrCLJgGDdGjtlEzra/8W50Cr0HDGLMUw8xfN87bDh/+/dW+iq+47PVlYwc/xjPP9RM9rGDHDtbQF1bN3D99JsUi6X9oaajtw0WQhKGMHrCBAbH1HI543NWny9Es4qI3Cv0JZPcMcyGbC6XpjJiZBw2wBYzloUvPcaQsJaDuiUhlWQ7LQ+CSAym8nodJi5cnhDCQg3AIDw5mW43zgEsscOYOCyK+uKLnNi3jm+LokmIaueQMJ1UZh9mx0d/56MdV7AOXsAzi0b/8F4/x1dZRlVsConBgCWatD7R/PjAOYPI/pOYMqoXjl/x5LEO3TaWeB54ajmP9PWQuWkl73+2jRO51Xh0DZDcbXwVZF9upt+YIURawLAnMWnZq0zvE9zyc0cyvXrYACuxyfE0lpXhAdwuD6GhYRiANbYnCY4br2dL4v5JA7FX53HxyA62HKmkR0JkO5+i6KPp2nkObVjFe5/s41rEWBY8v4CBIW28mreC8roEeibZgCDi+6QRcsuUZom9j0lThxP/a75u7dBtY6XXtBdZOjWRuuNf8P67n/PN6cK2A6SIyF1GK11y5zCrOLFxM9Hzn+H1CTYMXzlnt37FuQYTC+CrCaLvwuVMjOyGo3I3X+d6wGwg+1g2I2cu5/FrVdTV1lJltpyF+Gor8T6ykOVjvLixYlbuZ/tvXs0xcZZn8v2WTI5arRiEMTj9GSYm2wjqFkuk53leHOWi5MAatl86yYGTQ5jzyuuMqy2nqLwUn+XGCZURwcDJj9D74l84+GvCTkduG185xz9/h6NepSy52/koPfgVB9MX8OwfZmHBRWnGOjZdcYEdzKY6wsc8wVOx3Yi0FrD/8xJ8mFScO0rlksd5IqaUmuomquvAYgCeamqDZ7Dopcm4PBaCvEUc2FDa7suGf6iy4SoXDqzlwkErVtMgevQSFoyJxeqIJjQ0ledXTMGVvYOP9+RyfG82Sx77F56vreZayVWqzJsr2BZ6DH+YcXH7OfmrprmO3DZeSr59nw89WtcSkXuXEREVrzMrCRwjlBHLlhO5+20OXGv/qYm1/yJ+N/oyf/3sLO4OLC9gHMNZtKI/p99aS7bzt73UXbdtpG22wSx4rR+n/r6J/HvyHNdCzJRXmNX8CZ/efFJoezhGsvRfUsj48wZy74btaHRj7PLlRO7+K3uKfmOH7rZtI23roOO0yL1OlxeKdEG2pFSCTx0k5zcGLhERAOxpJDmPcKxYKUlEJBC00iUiIiIiIuJHWukSERERERHxI4UuERERERERP1LoEhERERER8SOFLhERERERET9S6BIREREREfEjhS4RERERERE/UugSERERERHxI4UuCSwjlBFPv87UeO2KIh3CNpgFb8wj1RroQgLFQsyUFSwbG4ER6FJE7gY6Tot0CFugCxD59axED59H+qReBJsGwbZGsvd8ye6LNfgCXRoWoobNY96UVBymibs8g20bjlDqal8bW8I45s0bR5zNBGcRhzds5GyFF4wI+k1fxLQBERimj5rzW9l4IJcms2PbGCFpTFz4KEOjrJi+BvL2r2X3pRrMNmpuq40tLI7U4Q8y46EIjr25imN1Lb+T/W7rZ6ttrCFEJg1k9CNzGFb2OW9uycHbKful/JKgxPGkp48l1mpiCTaoPbuFDftzaDQDXVkb+3o72nTavt5am1bHp4E9eSLp88YRHwSGt4xTW77iUH5TG23aMw8Eup9t1GzpzqBZi3loQDiGYdCUs5eNW05T6W3ffCciXZPVHhL+n4EuQu5hRhAJw0ZgzzlOfsMvHC2sfXn4maEUrnmbTQePcLIgjPvHRVF6sRjXgMX8fnYajqFTmTZ1Gg+kusnPLKHRNIgcnM6SxdMZNXIcDwyPoTrrClVusA1czOuzexPaexgjxzzElKEWCi4Ut+tkywi7n/RFiZx5fxXbD52kImU+s+JyOFPgJWX2ChYkFHCuoAEjehxPvTAR98WLVAS10qYwhDFL5xC07x2+2HWYC833sWCKnYvnruLrO5elQ/L4YtXXfHc8n+6PLKZP2TFy6qIZ22FtrhHz4DOMr/uaD77cw4ksK2MXj8Z56gJVjtb62UzCQz/fpjp2HPPn3EdQcR5NyfE0nDpFiQswYjqw5sD3s/U2PvrNfJIJ8TXkXHfQx55PRlYVfjs3ssQxaEw0pccuU3NPnoAZhKaOpp/nLOdK2vzWA3AwJP1J4k+9xUdbvuPYqTJix48gODeTMusonvgfD5IQPZLJDz/E5NEJ1GddptwJ1thRzFu2iEmjRjH2gaE4rmdSVOPBCBnFE689SGJUf4aMmsDUyb1pzs6kzNmebrQ2PkoJGryEF2aGkn2uBKctiSkvPsfAyrPk1nQL8L7eepvatNbGZxRjFs8haO9bfLr9IGdq+5E+NZxLpwvxduA8kOsdHuB+tlFzvzksHZzHp+9+ybdHswiZtJQB1UfIqm7HfFfrh0F/O8dpEWmV1orlzmHWUFUTTs8BKUQ5LHhKv+Wrz7+nwgf4TGw9IynbtIoP/v4eJ8IeZmKfIDDshIfUkPHlW3yw8u9suTqQSfd3xwBMn4k91iBv29es/+QLzoWPZ3hi+4aEJbE3idcukO20E+IwKc3MIywtDYfhJH/PRvIHzmN8Ug9GPTqGqp2byaw3W29j70VKt3wyC7wEh9pxX7lIaWIfkqwWYtN6Unv5InW2EByWSrKueOiVFo0luAPb2CJJ6QVXLpVhhIRia8gkqzqFtHhr6zVbWm/ju3aEdZ+s5Zvz13HderzuyJq7QD9b3weaydrxAWu3HSGvzuu/sCXt4KamqonuvQeS2C0Yw5nL/o/Wcb7OBNOEyJ4EZ37Bmnf+yldZPXlofDIWDEIigrm690Pef/ct3t/XwOiJg7ADpmlC9xicJzey+cvVbM1LZezQ7u27zLHVfd2k4dJmdteOZfboOBInp9P3ygb25TVjBnpfb7VNUOvj06zg+1X/xdYrTS1jw2LB29SAi46dB2yB7merNYMnax1vfnCIKi+ABaulkYYms31zZAeODhHpWBqfcufwlXH448/JtA/j4ade45UXn+TBgd25eeuKt/gyOY0mmHWUlDiJigvHMF3U19oYPPcFlj39NNP6h+FwOH44CfJdL6TYDZh11NUHY7e37y4Qw+7A4nRiH/4kf3z5IeJczTjtIdgB3EV8tzmLvste5v6yLezJbjm5aK2NI9iB3e3EFTORZ//tWUaGu3CaDhw2A4fDjrvZS9/5/87rc3rjaXISHGLH6Mg2QQ4cdhcud0+mvf4fLBjkw+myE2Jvo59G621a3WZ3WT/b3Aeki/JSuHsV2wtjGPnocl567SXmT+xN+M1pwJlPdoET8FJRVIo9NpYgTJpr6wkfu5inn3mOxyelYnc4CL7RxmwsprjCC/hoqGsg+Jb55na0vq8DZhM5u7ZRMfoVnuh9ia0HivC01aaz9vU22rQ2Pm/pMY6eU3j8wSC+23WOJrOD54EA97PNz/MmaxRD0hfTN3cTR6762tVPEem6dE+X3FmarnLuwCbOHQBr1GgWvbCQ4SUfcgbAZ2LeWEYwLEbLt6ZBA5i2cABla1bx3TUvsVNX8Nite73p65Cb7c3mJnwOB+6snXxa1kyVfQp2ZyXNLdVgDQvH5nJi7dYNuwEus/U2TS4PzqBEgmu/Z+tH2TQ0R5NiNNPkMWluchIcEkTxgTWs9ZURPMyBq9GJ6WrquDbuZhzOYMLs1zn21YcEVdnoNaaZpmYwfa3002ymqZU2rW6zjqy5C/Sz1TYdsH+JH/nqKTqxm8ITQFA8E599numVf2J9HmD68N1cmjQMDBNMI5yhc+YSf/EdPj1eBalzee3hW1/Q7JDVzNb39RvlBIUTbjTjsncnPNjgepMZ+H29jTatjc8WNmJHPkb68FoOfvIZ2bU+wNKx80Brc3Qn9fMXP8+wPkx9fAbRlzbw6bGSlqsC2tFPEem6tNIldwxL/DRefD2dPiEtMcnnduGx2LDd2IstCakk2wEjgsTEYCqv14EtlBCjkusVbrDG0rdvLBY/PNPMdzWH4h5D6ctV8ooaSRicRl1OHk4TjND+PDIjihNr3uEb91QeHRmFpa02zgLyqlIZlNzM1ZwSvH2GEl98hZL/v707DY+qzPt9/11VlarKPEKYEkBIMDKIDCIIKIpMMqkMtraCDYp2a5/uc/azz3X2dc4+z6t9Xftcux+f7rbbBtqBSRxAhiDzLKCAMsgMSUgCISEDmZOqVNVa5wWoYBsQSKVI8vu8Sqpyr/qvqrXuun/rXmslYFKWm0/U/Rk4y86TXxFDrzQbeeevYDY0YRt/Ffl5Fj16xVOdn0NpWAa9YnPJuRxovGaz8TaNasqa74H1vNk2IPcoR3fGvvUaIzs5r/4eaMBn2nB836m4O5PS3gHYSeqcTF1JCX5cRLh9lBVXEcBJp7T7iDSC0Ks0uq0DRix9Jz5GYOcClh+IY/S4DCKNm7Rprm290Ta+xvdP7CQOnMmU9POsW7bpWuACaNp+wB/q9bzJ52mE9+DJXz2JY+9SVh+89ONp2HfS3zX1digiTcaIjk/WkEBCx4ig/wuziNk6n92Xb/F1YYSTMuwZxg7qiMPvxzA8XNqfyYaDlwikPcdbI22cqIkgOSYW95U9fL76EFfMKNImvMSo5CpKyos5m+3g0VGdOLbiQw5ETOWtgWf528fH8OGkz/O/J+XA22zIuZP7ytmIfeBpJo/shttm4C/6ii/WHqQ4EEXGM7PpnbOYlUeqIKIXT89+lOJPF3Gg1Pr5Nn5wtB/E05OH0t4BhjefPaszOVlughHFfU9M44n0KGw2i/IjmWTuy8djNW0bw53CkKkT6Rtnx6CWc1tXsDOrGqux9fTTaBsjcQhTpw0m0eYkun00gdIyamtOsHHpDooSW896Nt7Gzn1jX+XJ7g6MiASSwmoorazn0t6lfHGsuumv8XJkMOX1nhx5N5O8NnmLRBuJI15lrOcjlh+81ftrEJ02molP9SXe5idgg9rsXWzYdJQyx0PMeLM/dWcaiE6KJcZ+gZ2frONMNcT1n8H0RyIpLy2n8OQFEkcPJ2zPMlad7MK036Zy8M9rOB8wiB06lxnh63hve+EdDYZ/fruF+EEv8Vynr1iWeZZ64njw+ZfpeWIRn39XiT2k2/pN2jS2f9rvZ8p/fYEeNcVUX7vviVV/tX+4aDZlPxDi9Wy0Zkgc/jrzHouitKzu2vYaoPBa/9DY53mz/q7J3c73tIg0SqFLQquJOnN72nPXBSiRNkyh6zZC1024H2LGDwGqKesTaWEUukSahE4vFBERERERCSLNdImIiIiIiASRZrpERERERESCSKFLREREREQkiBS6REREREREgkihS0REREREJIgUukRERERERIJIoUtERERERCSIFLpERERERESCSKFLREREREQkiByhLkDaLiOyO8OnjCPd7cd0QvG+VWz8rpRAqAsTaaGcnR9h4viBxAT8OBwVHF23ioOFDaEuq/nYYkgf8ywjUsPwGU7M3G2s3XyaKivUhcnNtPnt9h6m72mRpmN3hUf9e6iLkLbITsro2Qy68imLV+/m8GmLB6cPw/juGMW+UNcm0gLZ2jH0+fFYm+ezcudBTlanMWl0PFlH8vGEurZm4rp/MjPTsvhoUSYHDucQPvx5Hqg5yNkrZqhLk8Zou72H6XtapCnp9EIJDSOGzh1NLmSX4Aes2vPklSfTKUmbpMgdCetMp9gCci42ABaevByK23Um2R7qwpqLjYQunajOyabaBALl5OV76dApXl9097I2v93ew/Q9LdKkdHqhhIyFAYbxw++G8f05QDaShr3Mr4YmYyNAwY4FrDxUhQXg6MX4N6eSbger9iirF24kP9D0bewpTzF7+gCiDPBnZbJgzUl8AEYU/abNY1SqA8xSDnz0AV9dvnoUvUnbNNN6NtpG69lM20ATryfG9bsUhgVt68y679+Faz8ZYFpXH9M+fQ9v641uty2xX29d31+Nf0+LyO0youOTtQdJCNjpMvb3jGv4hA93XCIQPYDpc9I5Pv8TTtZrkxS5bbYkhs15mdjtf2NDdgPuXs8y55ECliz+us1c0+TsNZ15Qy+wZPHXVBjtGDrrZeJ2/JkN5/2hLk0ao+32HqbvaZGmpNAlIWOEd2PY1PHcH+7HDPNTsHsVW09VoKsvRO5MWIchTJw4kJhAgDBKOJC5hu9K29Al70Y0PZ96jse6heHDgffcJjJ35lCnb7l7Wpvfbu9h+p4WaToKXSIiIiIiIkGkqyFFRERERESCSKFLREREREQkiBS6REREREREgkihS0REREREJIgUukRERERERIJIoUtERERERCSIFLpERERERESCSKFLREREREQkiBS6REREREREgkihS0RERKTJ2EgcMY8XBkdjhLoUEblnKHSJiIiIiIgEkUKXiIiIiIhIECl0iYiIiIiIBJFCl4iIiIiISBApdImIiIiIiASRQpeIiIiIiEgQKXSJiIiIiIgEkUKXiIiIiIhIECl0iYiIiIiIBJERHZ9shboIERERERGR1kozXSIiIiIiIkGk0CUiIiIiIhJECl0iIiIiIiJBpNAlIiIiIiISRApdIiIiIiIiQaTQJSIiIiIiEkQKXSIiIiIiIkGk0CUiIiLSZGwkjpjHC4OjMUJdiojcMxS6REREREREgkihS0REREREJIgUukRERERERIJIoUtERERERCSIFLpERERERESCSKFLREREREQkiBS6REREREREgkihS0REREREJIgUukRERERERILIiI5PtkJdhIiIiIiISGulmS4REREREZEgUugSEREREREJIoUuERERERGRIFLoEhERERERCSKFLhERERERkSBS6BIREREREQkihS4REREREZEgUugSEREREREJIoUuERERERGRIHKEugARkdvh7PwIE8cPJCbgx+Go4Oi6VRwsbAh1WSItlJ3EByfz9ND24HMQVn+Srat2kldvhbqwZmNEdmf4lHGku/2YTijet4qN35USCHVhIq2NLYb0Mc8yIjUMn+HEzN3G2s2nqWoj3Y3dFR7176EuQkTkF7G1Y+jz47E2z2flzoOcrE5j0uh4so7k4wl1bSItkBE9iKnPJvDN+0vYduAwRckTmNj1Iodyqmkb4yA7KaNnM+jKpyxevZvDpy0enD4M47tjFPtCXZtI6+K6fzIz07L4aFEmBw7nED78eR6oOcjZK2aoS2sWOr1QRFqOsM50ii0g52IDYOHJy6G4XWeS7aEuTKRlsnVIpX1JNrl1FuCj+PxF3B07E2GEurJmYsTQuaPJhewS/IBVe5688mQ6JWl4JNK0bCR06UR1TjbVJhAoJy/fS4dO8W0mjOj0QhFpYQyM6waEhsW1I/I2koa9zK+GJmMjQMGOBaw8VHX1OUcvxr85lXQ7WLVHWb1wI/kBwIii37R5jEp1gFnKgY8+4KvLV4+42VOeYvb0AUQZ4M/KZMGak/ho6jZ3UHMTt2me9bxJG61n82wDjdVsWVfbGfDj1JZF2zjufJWFwfWdimH8OMenfboVbetaz3vg++vqvvVDd2OAabWNOXUAIzo+ue2srYi0bLYkhs15mdjtf2NDdgPuXs8y55ECliz+us2cEy7SlIyogcx8NZ1jCz7mRK2DzmNeZ4JvBe/tKAxC8LLRcdAk+gW+Ysvh4huWb0T3YuQTHbiweTc5N1xP1nibpmGny9jfM67hEz7ccYlA9ACmz0nn+PxPONmGrmsTaQ7OXtOZN/QCSxZ/TYXRjqGzXiZux5/ZcN4f6tKahWa6RKTlMEs5mLmXiRPnMGtkgDBK+DLzoAKXyB2yao6waWsXJr70GgN9DmxV37JubVGQZroMYro9yAMNJ9h6uPjGZ1wdSHswnbqdu8mp/2VtmkaAgt2rODV1CrN+48cM81OwaRWnFbhEmlzD2Y1s6Pocz83tiw8H3nOryMxtG4ELNNMlIiIiIiISVG3l2jUREREREZGQUOgSEREREREJIoUuERERERGRIFLoEhEREQOPnRQAACAASURBVBERCSKFLhERERERkSBS6BIREREREQkihS4REREREZEgUugSEREREREJIoUuERERERGRIFLoEpGWx5HBlDcn0dUe6kJEWgd76gTmTe+DI9SFhIoRQf8X32BksoZFIsFlI3HEPF4YHI0R6lKaWZvtX0VE5E7YiM0Yx6TRfUh0GvivHGfb6g2cLjdDXZiItDZGJN0ee4axAzrjtgWoytrOunWHKPGHujCR26fQJSIiv5gR/RATJqWQu/g/WVpkkjjoeZ59PJ3zq8+SNOb3jHIcpyapB+1iXVR/u5KVewvwuR9ixm9TOfjnNZwPGMQOncuM8HW8t70QRTURaYyr1wSm9r7CqneXkdcQQ8bklxnVL4vPDofxyJyZJOUWEp3akdjIBk5/8RE7czx0fOotnqj6gGX7q7DsaUz8wyBy/ryckwpqEmKaRxcRkV/MkZJO56JDHL7cAPgp+2YZ/1x1Gq8FlmmjU7sadi6Zzz8XbqdhyBNkRLa1E0hEpGnY6dijOzXHDnKh3oJAJadWv8Nnh6qwsLCM9nQI7OfT9//OP9ddJuOJgcSpu5F7mEKXiIj8QgZhbhdGfR1e6/vHLH74EZOSrCyqTLA8l7hUGU+SRkEicodc4S48dfU/9jHWdf2NWcn5rMv4AV/hRcri2pGgUa3cw7R5iojIL2Thq6/HjIoi/PssZTgJjwi7dkG0hWkGrg2KDAyDqz9bNy7FMBTEROTW6mvrCI+O/PGGC45wIpzf/2Zimd93Ltf3Kdd3ODb1N3LPUOgSEZFfzJ9/itzEAQzo5ARsxDwwhVkzHybeBmAnMTWVCAMMdyc6xpRResWCQAM+eyQRDsAIp1NKUpu7a5WI3K4Al85k4e7zMN3CDTAi6PbUHF4c0Qk7gC2Ozimx2ABHpy4kXrnMFRN8DX4iIq4GNXtSFzq4Q7sWIt/TjTREROQXs2qPsXl1eyZO/T1vOW2YVafZueprrpjQCZOqQApjXniImNhoPF+t5FS9BUYOR48M58kXX6DnlSrK60uxdPRZRG7Bf34zq76dyvh5/wcTbODJ3c3arQUESACzEk+7J5n+UhwxMRYn1m+hwjIxjh/gyvRnmZlYRGVFPRXVYFN3I/cAhS4REbkNFtVZW1metfUnj9sAC0/+blbvr7rxjEKrnpwt88m57qHdQa9TRFo8q56L+5azcN9PHjcAy8/lg5+zq+jGe6BaZd+w4h/f/PjAT7sqkRDR6YUiIiIiIiJBZETHJ1u3/jMRERERERG5E5rpEhERERERCSKFLhERERERkSBS6BIREREREQkihS4REREREZEgUugSEREREREJIoUuERERERGRIFLoEhERERERCSKFLhFpeRwZTHlzEl3toS5EpHWwp05g3vQ+OEJdSKgYEfR/8Q1GJmtYJBJcNhJHzOOFwdEYoS6lmbXZ/lVE2oow0ia+wZiekUTHO/GUV1NzYhUfbMknfcZ/Z0q3SqobbJiV2RzcvJFvC+ppmf8x3sCVMpxJTw+mnROMmrNsX7me05VmqAsTaWUMoh+awYsjU4mMjcVWV05NyQFWLdlDzcBX+P2Y9lTW+DF8pZzbu55tR4vxh7rku2SLH8Bzc6cSvvt/sWR/FRZhtBswlUnDU3AZBt78HazNPERpS19RkSBS6BKRVs7HuXV/4Zz7IWb+oSeH3/mMs34AOxDg/Ka/8clRP9E9xvL8jInU/GMFp+tbYOyydeCRSQOp2fB3Vp73Ef/ILF58KoPzK07gDXVtIq2KRfXhT/jHkQQemTObmM1/ZnN+ADCIAupOfM4/Vp/FltCX8b/+NU9W/pVNub4Q13wXwrrw6JjulOdcwXXtISNuIGMfs/H1grc5WR9Nn+mvMaZ/Nsu/qWyhB61Egk/z6CIiBKjO2cmBkjQyurXQY1G2RJKiCzl/wYNFgPIzZ6js3JX2OgVTJCR8V06w51AdaRmdabG7oRHN/WOHw571nKz6MU7Z4tsTX5pNbp0FZhVnTxXRoVunlrueIs1AoUtEBMDyUlsL4eFhLfM8c7OYyxVd6NUzCoMwEnp0J9HlIizUdYm0WSZ1tXW4IsNbZp+Cg+Sh4+mRv5G9BTfOl5ulRZS1zyA91g72WHr06IAzzKVBpchNtNBDuiIiTcyIIDbGora2oWWeHmMWc2DtHsaOm83cEbUUnbtCWU0dLfFMSZHWwUZ0TDT11bUts0+xp9LvwS50Ml/glaEGYbGJxPpfYlzVB2w89S0bNycz7vk3GOAtJruwlKpALYFQ1yxyD1PoEhHBRuR9IxgYf5ptuS31SnAn8Ql+jq38O5lVBolDZ/Fs9mFKdB8NkZCwxz7AsP52Tq8oaJlhJJDDlnf/49ovNjo99RZPVC1h46k6LHsSic6zbFyYyRUrhr4zZnHxyIWWuZ4izUShS0RauevuXhjupOOb/zsjr929EOx0H/smvxtlg9pc9n+WSU6LveuEjzp/MmN+/SZPGTbM0oOsX3Ohxd81TeTe85O7F874Az2+v3shENH7OV7v6sNmVZC1czlfFrTCKGLW4o2eyLQ3xgAWVSc2kHnGE+qqRO5pCl0i0spdu3vhzzxz6tP/l1PNXk+wWFSfWc+SM6GuQ6S1u3b3wsM/89TB9/kfB5u9oGZgcmnLn1n6/a9WPfk7P2TBzhCWJNLC6JpHERERERGRIDKi45Nb5PWdIiIiIiIiLYFmukRERERERIJIoUtERERERCSIFLpERERERESCSKFLREREREQkiBS6REREREREgkihS0REREREJIgUukRERERERIJIoUtEWh5HBlPenERXe7BewEbHR19i9uv/hX/7/Vg6/ktPaafXtP+HXw+OxghWCSLNyJ46gXnT++AIdSGhYkTQ/8U3GJkcvGGRo8cYXn71Lf7w3+YxJP6nPYdBxIDZ/NcZbfgzkDbCRuKIebzQBr8/FbpERP6FSeHeJSxa9iWFgZ97PsC51f+Tj7+t5t757/IGdmcsHR8YxYw//neeeyBoiVRE7oA/ezOL3/uMw1fMn3nWou7IUt7+/CT+Zq+scYY9nNiU/jwx+//if3v6PtSriNw5HVARkVbP2fkRJo4fSEzAj8NRwdF1qzhYGKDL2Ld4POwoZY4kotp1wHl6FZ9+eRHfTZZla/cIUyf3JymhPXU732bZwavBywgfwIw56ZSd8+KOiaNDfAX7PlnNyUoLI7wbw6aMpofLxOa2U3pgNRsPlzTt4MrelWHTHiU67wjnC3ykNuWyReQGRmR3hk8ZR7rbj+mE4n2r2PhdKUavacwbVM/xahfx0cm0C3zLqk8PUPpzOet79lSGvzCetLgk2l9ew58+PX61b7AlMew300nKuYAZG01CcjSXtixlW3YdlhFDz9FTGdbFjulwY13cxbpNJ6m82evcNjc9R8+kn+0MJ3KK6B3dlMsWaXs00yUirZutHQ8/PYSaLQv58IMFLN3ZwMMTHibesDBNG0nuEnau+YwVy/biH/wwqbc4lGuWfM3n7y1g3ZGKG2a5LMuCuES8h9ey7rPFrM/tyuDecRjY6ThiIl2zV7B00fssWrQLho+jd1QTn1gRyOXLj5axfu9pKnz3zvybSOtjp8vIZ+hZ8DmL3l/Ih0u/IWL0OB6INLBMC1eSQe6Gz1n90accj3qEfv96fvKNAvnsWTKfxRtP472hUzExjXZEV33JF6uWs3x7GQ88nI4TcKaNZlTsIVZ8+AFL/7mUY3HjeCzN2cTr6eHcpg9ZueFrcqsD99CsvkjLpJkuEWndwjrTKbaAQxcbAPDk5VDc7n6S7VBFgLKLF/FYYHmrqTVcuO4iC1l1BRSUBQCD2upanOFuDMOkc5cE2veYyUt9LcDAaUBVrAE1GsaItDhGDJ07mlzYfG22uvY8eeVP0CnJxknALL5AgQ+gmuoaJ3F306mY5RQUXJ1ND9RW43G6cRo2orqkEJfSgemvDAPA5raoj4vGRhlNOtklIk1GoUtE2gAD47pxj2Hxw1Fby2rKIYr1M0eDLTDrOLPxn2w4/7MXiIlIC2NhcH2nYhjX7fmW2XQ3CLAsrOs7FQMMwMKk/MhKluy4rJAl0kLo9EIRad18F7lYkULPri7AwN29J+2K8hq5QUYQWDVcvOijW0YqTgBnCoPHDiZZV6SLtExWFQUF0K1nMg7AiLqPrjGXuFDcXPHHpCz/IuFpD9DOARgR3DdyLL0TNKQTuZdppktEWjezlIOZe5k4cQ6zRgYIo4QvMw9SZUFUI03sqU/yq3G9cNmjSEy0M+W1HnjLD5G54hjtxv+aYZ0dhMUmEeOfzW8GNHBp9xI2nm+0AIr2rOLw1KeZNTdAwGFQemAVh5s69Nm68Oivp/BAhA1XfBTh3X7LqyPLOLLiYw7e9Cp+Ebk9AQp2r+LU1CnM+o0fM8xPwaZVnK63Gp/hcvVizEtPkmJ3EN0uHutXb9CnoZD9n6zlUvpzTBmUhN2dQEREV2bPG0FD1iaWba9otAJf9ha+6DqNSXPn4SOMQP5OMiuaej+3c9/YV3myuwMjIoGYsCTmpNRzae9Svjh2L925VaRlMKLjk7XfiEjL4shgyus9OfJuJnk6Y0/krtlTJzB3SD7vfXb8nrplebMxIuj/wixits5n92UdpBAJHhuJI15lrOcjlh9sW+Fdc9EiIiIiIiJBpJkuERERERGRINJMl4iIiIiISBApdImIiIiIiASRQpeIiIiIiEgQKXSJiIiIiIgEkUKXiIiIiIhIECl0iYiIiIiIBJFCl4iIiIiISBDZXeFR/x7qIkREbosjgym/HYrn27NU3vV/GrTTa9r/zfjIwxy71HDXy2o/+HlenDmeIYMH8WDHes6evczdLlUk2OypE3htjIujJ4sxQ11MKBgR9H9xLunFh8irvdtOxSBiwGz+OMLP/hN3/346Ux5j5uyZPD5kMP0fTKD86DnK2+SHJK2DjcQRr/FM8lmO3/V3bsviCHUBIiKhFeDc6v9JttnAXec3W0f6PpLAqWV/4sviUI2KDCJ7TWX2zBSOL3iHXUUmGNH0HP0co9KjMSyTyhPrWbv7PPWWjfi+k5g0oituy8JXepANa76mqAGM8G4MmzqB3vF2LLOW3J0r2Xq6Eos7aSPSlljUHVnK29+Z+O96WXZSBw3Dtu8d3vmmOmT7ki1+AM/NnUr47v/Fkv1VN+0HHB2GMGnSENo5LPBe5Ks1azlWFrhJP3RnbURaGoUuEWnV7CnjeWl0FCXeJNrXZZFjdKFXfA5rF+2iOOERpk7uT1JCe+p2vs2yg1cHNUb4AGbMSafsnBd3TBwd4ivY98lqTt5kWs3e5TFmjO9Ph4RYfM+8Sk8TvGc38MmufKzEkbw8xcGB0x0ZPjARy5fFtoXryTFj6Dl6KsO62DEdbqyLu1i36SSVpkFkz/FMG9cDqsopKbXo1i6LJYv3U32LwYY9aQhj+tWTW/TjHzp6jGZMx9Msf/dryo32PPrKr3g05x22XenL6CfC+faff+VEbRgp4+Yx/uEsFu25QvKjk+hVtIL3lxdixg5ixuyn6Hl+BVmOfrfd5py3iT5MkXuB434mzx2KedmiQ2wZ5y5F0LWni+MfL+FQZQrDXxhPWlwS7S+v4U+fHr8avGxJDPvNdJJyLmDGRpOQHM2lLUvZll3XeJAKS+fJXz9Br+RIwlNeZPZDFmblUdav+JoSI5Wn3hhJ5fYi0kb1ITJQxanMD/mywCCh70TGD04Ey4XTe4Yda3aQW2thi+/HhBlP0KGhgorCclx9wzn09seculUyDOvCo2O6U55zBde1h4zIRvqBvRYDJwzBs20BC3O8uDOm8cq4/pz/6Fs8jfRDWy/G3X6bC4Gm+jRFmo2u6RKRVs0yIdxVxsHP91GT0ZHyzWv5jnS6xRqYJV/z+XsLWHek4oaBj2VZEJeI9/Ba1n22mPW5XRncOw7jJq8TuLiL5e+v5XRlLl8uXsAHC+fz0a58AoBZeYWq9kMZHL6Xxe/8hYX/WE9OAJxpoxkVe4gVH37A0n8u5VjcOB5Lc4KtPQNHp1Ow5u8sWrycQ54EYrFueZTbcN/HY08mcHT9Qcr83/+1jaRuXag6e4pqRzhu2xXOZftJ6ZaAo2N3Ol4+SZbXRbjbouhMLpHduuG2xZCaAtmnSzDCI3DUnuFcRSrdku3Y7qCNSKtiWRBjULhtDUdtfYg5v5qt5+LomeqCQD57lsxn8cbTeG/oVExMox3RVV/yxarlLN9exgMPp+O82ev4zrLtg4XsyKkhe9NCPlg4n0Wffk2JCZjllNd0Z+hDXrYu+E8W/ON9viwwMSIfZPSjAfYse59lH8xnTW5Pxg7vgg07KcPG0O7EMt7/4EPWnoNEF7eeOTOiuX/scNiznpNVP/51o/2AK4XU2DzO5AdwRrjwZZ+iqON9dLI33g/ZnHfQ5o4/PJHQ0XYrIq2eWVlOpb+BhroqarxefD4HTsfNIhRYdQUUlAUAk9rqWpxu901D180X5sNvFnJ8fx6eH8YtNhK7pBCXMpLpr7zGrFd+xcB4i4i4aGy29rSPK6KgMAAEKDmfR82tRke2ePqOG0j19k3k1F3/xwZutwufJ0CPyf/GG+O746/34gx3Ybjc2LxeXP2e5w9zH6ddgwevKxyX4cbtaqDB14VRb/yfTLnfxNvgItzFHbURaXW8lVTUefF5q6mu8eNr8OEIC7t5H2GWU1BwdTY9UFuNx+nGeaediuWnwWdy4ch+Lvt+fNiWnErnuHRGvfgas34zl0l9wrFHJuCyRdG+PRQVXMEEGvKyKfA1uvRrHCQPHU+P/I3sLbhxurqxfsDtdOPyeWlIHMZL/+UlHopqwGu5cTtu0g/dQRuRlkinF4pIG3Btlsj6frbI4NYJ6tYzS7fFrKXWc+MSLUzKj6xkyY7LN15sH9bp2vPX2GzYblGvrX0/+qd2JCx5Hv2wE9UuCePZ56j8+HOK6r04w8Mo2L2ElWYJzr5uGuq8WJ56TLcb37nNLC/xUO4agct7BY/lod7rJNJVzDcrFhFW7iBlkId6D1jm7bcRaXUs84f90/qlHYVl3fi3v6Qbuuny6qmr/clpdoaFWbiXlT89FdmIAeu6Wo1b9ynYU+n3YBc6mS/wylCDsNhEYv0vMa7qA7Y00nfUN/jxhnXEWbWf9UuzqPUkkGp4qPdbeBrrhxrqb7uNSEukmS4RkZAwKcu/SHjaA7RzAEYE940cS+8EGwRKKanqQJeODsBJx57diLjV0op2sfgvf+G9+X/nvQXL2H+phMOfr+TIlQBluflE3Z+Bs+w8+RUx9EqzkXf+Cv7CHAra96YHheRerKNDRjeqc3LxmlXk51n06BVPdX4OpWEZ9IrNJedyAPMO2ohI8zCL8riUlEF6nA2wEdN7NCPTojCsWsrKbHTsnIANg/D70uh8qzN/Azlsefc/WDj/77w3/13WHi6jYO8SNp6qI9BYP+DNJ7e8K/d39lCYc4nAfb1JLsjmUsBstB8yG+6gTXO8mSJNTDNdItI2GZFkTHyBYZ0dhMUmEeOfzW8GNHBp9xI2nm+eEnzZW/ii6zQmzZ2HjzAC+TvJrDDBLOLQ9iymPfNbXqmqoOhyCVV3Me3my9nGpm7TePa1AdhsFuVHVpN5KYBlHWfrlq5MfvFNhtoM/EX7+OJAGSZwed8ajk+dzOzX7RjUcu6LFeQ0gNVw+21E2gYbCQNnMHlQEnZ3AhERXZk9bwQNWZtYtr2iWSqwar9jy8YUJs58nT5+gzDPGbavrsXCInfvVvrNeIk5GZVU5JdQ7LvzIaBV10g/YMHh9Xt4evJc5o4Gw5vPztVHqLWARvohrPLbbyPSAhnR8cm68aaItCyODKa83pMj72aS12zfvwYxacMZ1D3yX08J8hdwdOcxSoN0+NWeOoF5j5eyeMmBW1/bJXIH7KkTmDskn/c+O94EtzlvgYwI+r8wi5it89l9ufnmUWyJfRg+oAthP+1UrFryD+7hXEWQdnhHBlP/2I/Tb3/C6Tb5gUvo2Egc8SpjPR+x/GDo/g1CKGimS0TkF7GoOvcl28+Fug4RaS3MsuPs3nI81GWISDPQTJeIiIiIiEgQ6UYaIiIiIiIiQaTQJSIiIiIiEkQKXSIiIiIiIkGk0CUiIiIiIhJECl0iIiIiIiJBpNAlIiIiIiISRApdIiIiIiIiQWR3hUf9e6iLEBG5LY4Mpvx2KJ5vz1J5T/2nQTvtBz/PizPHM2TwIB7sWM/Zs5dpCHVZIrdgT53Aa2NcHD1ZjBnqYkLBiKD/i3NJLz5EXu3ddioGEQNm88cRfvafuPv305nyGDNnz+TxIYPp/2AC5UfPUd4mPyRpHWwkjniNZ5LPcvxS2/p2dIS6ABGRVsPWkb6PJHBq2Z/4sri5R0V2ek37bzzd6QqVXguwqDuRySd7LmLak+gzYTIPJ9vwG2H4L+xi3eaTVJlOOgyewpiH4jH9dsI8Z9ixZge5tRaGPZyYTr0Y+OR4+pZ8wjtf5BC4upLE953EpBFdcVsWvtKDbFjzNUUNYIR3Y9jUCfSOt2OZteTuXMnW05VYN2kj0vpY1B1Zytvfmfjvell2UgcNw7bvHd75pprmPcZkEDlwFr8bFUNZ9dU1Ma98w9qVByhrtO+A8K4jmfhUBuF+C4e9gmMbV/NNgRfLcBCekELG0HE8nnqWZf/YxuVr3aSjwxAmTRpCO4cF3ot8tWYtx8oCYETTc/RzjEqPxrBMKk+sZ+3u89RbN2kjco9S6BKRVs2eMp6XRkdR4k2ifV0WOUYXesXnsHbRLkriB/D01GEk4cfhqOfE+k/Yl+/BiB/M9JmpHFnyOWfqXHQbN5fHaleybHdho4Moe5fHmDG+Px0SYvE98yo9TfCe3cAnu/KxEkfy8hQHB053ZPjARCxfFtsWrifHjKHn6KkM62LHdLixLu5i3aaTVJoGkT3HM21cD6gqp6TUolu7LJYs3k91Y6Muw0W4u5IjK99le8GNgc+RPoono4+w8L1D1BkJPPKbOTza9Qwbi/vxxHCTfX9bQFaDnU5P/Y6nHz7Jezsq6DF6Jv1sZziRU0Tv6OteJrIfo58I59t//pUTtWGkjJvH+IezWLTnCsmPTqJX0QreX16IGTuIGbOfouf5FWQ5GmtT2jZnVaRlc9zP5LlDMS9bdIgt49ylCLr2dHH84yUcqkxh+AvjSYtLov3lNfzp0+NX+wxbEsN+M52knAuYsdEkJEdzactStmXXNR6kwtJ58tdP0Cs5kvCUF5n9kIVZeZT1K76mxEjlqTdGUrm9iLRRfYgMVHEq80O+LDBI6DuR8YMTwXLh9P54IMUW348JM56gQ0MFFYXluPqGc+jtjznVaDI0cEe4KNq3hCX7ym+o04hspO/YFWDA2Ae58sXf2FYQwJn2HK8/9RBnFu2HfhOZkObhzJnzlHe5fmGJDJwwBM+2BSzM8eLOmMYr4/pz/qNv8fQYzZiOp1n+7teUG+159JVf8WjOO2y9GNdom5p76uwHkR8pdIlIq2aZEO4q4+Dyszz2xwcp/8tavpv5LN1iv6Qm2knh9kVk5lTj6DWNN4bdz7f5R/CUf8OGfT2YMfYBSo5258l237J6U+OBCyBwcRfL389n/FsjuLR4CUfrr/vmr7xCVfspDM5bxuJ3cvFce8qZPppRsYdY9uFx6oim3/Ov8lhaFmvPxTNwdDoFa/7K1gvQ4Ynf8iDWLY5yhxMe7qbr47OYHR2Nsz6Xr9dv4LsSH1ZNDR5XOC4b1BluXLYaamotLF81NX434U4DGsJwu6C2vA4LD+c2fcg5DNwPpWFdF7psHbvT8fJJ1npdhLsDFJ3JJfLRbrj3+UlNgeyNJRjhEThqz3CuYiTdku3kOBtps7eUOg2QpKWxLIgxKPxoNZenvU6H8//BVmsew1NdHDqSz54l8/kq7Tne6n99GxPTaEd01Ud8tL0SR/pzvPFwOl9mH8Hb2Ov4zrLtg2wuzfg3eh1dyOoz183iGOWU13Tn0Yfy+HjBf3LZd+3hyAGMfjTAng/eJ89rI2HYXKYPP8fCTZdIGTaGdicW8f6eEhw9pvD6IG45c+aOiCS68wRe7J1AhL2S7F1r2XGqArOxvsOyqKmBuHAnBh7CXE581dU0YOE5upqPj4ItcSQPEvbjizhTSI3N49v8AM4IF77sUxQ9nUEn+2GqunWh6ux2qh3huK0rnMv283S3BGzFnRtp8y1n7356USQoFLpEpNUzK8up9DfQUFdFjddLmM9BpAM8VTVEjZ7Gi8MC+JztcJkXcRrgsSyqjmXyZY85zJ5UzvZF6ym7mykZy4ffLOT4/rwfAhfYSOySQlxKB6a/MuzqI26L+rhobLb2tI8r4kTh1UFWyfk8arr8/KJ/5OHiN7soLzjKmWIfMX2m8dJzwylcsIOSi3vYWTaHl3/Xl2pbHPYzn7OsxATrHHv2DuKF199iUI2bGN9BVm6uuulAzHC5sXm9uPo9z++GFbBolQevKxyX4cbtaqDB14VRb7xC7Ob/j1MNLsJdYDgbaQPU3cXbKhIy3koq6rxEe6uprvHja/DhCAvDwNP4/mOWU1Bw9RTBQG01HqcbpwHeOznwYPlp8JlcOLL/h8AFYEtOpXPcfYx68bWrdTjCsZcm4LJV0b49FJ28ggk05GVT4Otzqxeh+txevsrO4lhWGSQ9wvRZz9C/4EMOVTXSd1hwcsdh+v7qLeZWeYiIrmDvstPX9Xv/ynC6cfm8NCQO46V56Rx9Zxdey43bYdDgduErDdBj8r8xoWE5i4q9OGNcN2kDTXBOp0hQKHSJSBtwbZbI+n62yABbFL3HPE3yqQUs/7Ycuj7N609c18RwExUB3kAEsRF27vrKdbOW2p+MPCxMyo+sZMmOyzeeZhfW6drz19hs2IxbLN+q5cLh/T/8Wnn6BIUT+5JkM/A++CyP2zex8K+nqDNi6TtjDuP7/IPVlx9m6sPlrPnrR1zw2kgYOpvnx15gQWZWo+MWf0dgEwAACB5JREFUy1OP6XbjO7eZ5SUeyl0jcHmv4LE81HudRLqK+WbFIsLKHaQM8lDvActspM1tvH0i9xTL/GH/tH5paLKsG//WgFvt1jdfXj11tT+5hsmwMAv3svKnpyIbMWBdV6vxC/oULKpy9nPo+1/LTnC2dDjJiTZs7hE/33es9zNq2v3kLHmbfSU+nJ3H8NK0J7j4jy0UNdKFWg31eMM64qzaz/qlWdR6Ekg1PNT7LTz1XpzhYRTsXsJKswRnXzcNdd6btLndN1Gk+eiW8SLSRjmJcPsoK64igJNOafcRadiuDYLsJD0yhX4la3n/s9N0nTiaVFdTv75JWf5FwtMeoJ0DMCK4b+RYeifYIFBKSVUHunR0AE469uxGxK0W5+jOU6/P4uEkO2AQcV8ayeWFlJoGzshIbJ56fBZgeqj32omIdGKERxFu1lHvtwATj6cBZ2QE9ptVXZhDQfve9KCQ3It1dMjoRnVOLl6zivw8ix694qnOz6E0LINesbnkXA403kanFoo0KbMoj0tJGaTH2QAbMb1HMzItCsOqpazMRsfOCdgwCL8vjc4329EBjHDuf+ZNnukXiw2wxaTRPaGUy6Vm432HLYJItx+P52r68dfXEwiPJOJmAa8hn9zyrtzf2UNhziUC9/UmuSCbSwGTstx8ou7PwFl2nvyKGHql2cg7fwWz0TZN8z6KBINmukSkbbLKOfVNAdOfnsW00nIKT37F6QeGM/qhc2QW9uHp3hfZ8mEu9b4LbDj+G6Y+lc6SL87e9DSZ2+XL3sIXXacxae48fIQRyN9JZoUJZhGHtmcx7Znf8kpVBUWXS6i61ev689i/q4TJz/+e/paFvaGA/Wv2UWKaGN+s5/iU8cya68OLC3vVPjYfrsTfsJvNec8xZW46DQ0GTkrYse4kXuzcN/ZVnuzuwIhIICYsiTkp9Vzau5Qvjh1n65auTH7xTYbaDPxF+/jiQBkmcHnfGo5Pnczs1+0Y1HLuixXkNIDV0HgbkdbDRsLAGUwelITdnUBERFdmzxtBQ9Ymlm2vaJYKrNrv2LIxhYkzX6eP3yDMc4btq2uxsMjdu5V+M15iTkYlFfklFPtuMQS06snas4+eU15h3nATbPXkbvmco9UWgZpG+g6fxe5N6Ux48XX6ePw4XH4ublhFbsAgsvcUZo7ogt0RTWICPPtaBt7czSzZeJbD6/fw9OS5zB0NhjefnauPUGsBOdvY1G0az742AJvNovzIajIvBcAqb7yNyD3KiI5P1iYqIi2LI4Mpr/fkyLuZ5DXbkU2DmLThDOoe+a+nBPkLOLrzGKVBShH21AnMe7yUxUsO6M5cEhT21AnMHZLPe58db5uXxBgR9H9hFjFb57P7cvMdDrAl9mH4gC6E/bRTsWrJP7iHcxVB2uEdGUz9Yz9Ov/0Jp9vkBy6hYyNxxKuM9XzE8oPN/W8QQkszXSIiv4hF1bkv2X4u1HWISGthlh1n95bjoS5DRJqBZrpERERERESCSDfSEBERERERCSKFLhERERERkSBS6BIREREREQkihS4REREREZEgUugSEREREREJIoUuERERERGRIFLoEhERERERCSKFLhERERERkSBS6BIREREREQkiR6gLEBG5Hc7OjzBx/EBiAn4cjgqOrlvFwcKGUJcl0kLZSXxwMk8PbQ8+B2H1J9m6aid59VaoC2s2RmR3hk8ZR7rbj+mE4n2r2PhdKYFQFybS2thiSB/zLCNSw/AZTszcbazdfJqqNtLd2F3hUf8e6iJERH4RWzuGPj8ea/N8Vu48yMnqNCaNjifrSD6eUNcm0gIZ0YOY+mwC37y/hG0HDlOUPIGJXS9yKKeatjEOspMyejaDrnzK4tW7OXza4sHpwzC+O0axL9S1ibQurvsnMzMti48WZXLgcA7hw5/ngZqDnL1ihrq0ZqHTC0Wk5QjrTKfYAnIuNgAWnrwcitt1Jtke6sJEWiZbh1Tal2STW2cBPorPX8TdsTMRRqgrayZGDJ07mlzILsEPWLXnyStPplOShkciTctGQpdOVOdkU20CgXLy8r106BTfZsKITi8UkRbGwLhuQGhYXDsibyNp2Mv8amgyNgIU7FjAykNVV59z9GL8m1NJt4NVe5TVCzeSHwCMKPpNm8eoVAeYpRz46AO+unz1iJs95SlmTx9AlAH+rEwWrDmJj6Zucwc1N3Gb5lnPm7TRejbPNtBYzZZ1tZ0BP05tWbSN485XWRhc36kYxo9zfNqnW9G2rvW8B76/ru5bP3Q3BphW25hTBzCi45PbztqKSMtmS2LYnJeJ3f43NmQ34O71LHMeKWDJ4q/bzDnhIk3JiBrIzFfTObbgY07UOug85nUm+Fbw3o7CNhK87HQZ+3vGNXzChzsuEYgewPQ56Ryf/wkn29B1bSLNwdlrOvOGXmDJ4q+pMNoxdNbLxO34MxvO+0NdWrNQ6BKRFiWswxAmThxITCBAGCUcyFzDd6W65F3kztiJ7zuRiY92wPA5sFUdZtParyj0tp2hgRHejWFTx3N/uB8zzE/B7lVsPVXRRkKnSDMyoun51HM81i0MHw685zaRuTOHujbS3Sh0iYiIiIiIBFFbuXZNREREREQkJBS6REREREREgkihS0REREREJIgUukRERERERIJIoUtERERERCSIFLpERERERESCSKFLREREREQkiBS6REREREREgkihS0REREREJIgUukRERERERIJIoUtERERERCSIFLpERERERESCSKFLREREREQkiBS6REREREREguj/B0nLPOOSAaO+AAAAAElFTkSuQmCC;" parent="WIyWlLk6GJQsqaUBKTNV-1" vertex="1">
          <mxGeometry x="610" y="247" width="861" height="675" as="geometry" />
        </mxCell>
        <mxCell id="3gFDN2M3ZXm_7jDwdWTa-16" style="edgeStyle=orthogonalEdgeStyle;rounded=0;orthogonalLoop=1;jettySize=auto;html=1;" parent="WIyWlLk6GJQsqaUBKTNV-1" source="3gFDN2M3ZXm_7jDwdWTa-12" target="3gFDN2M3ZXm_7jDwdWTa-14" edge="1">
          <mxGeometry relative="1" as="geometry" />
        </mxCell>
        <mxCell id="3gFDN2M3ZXm_7jDwdWTa-12" value="select_cpu()" style="rounded=1;whiteSpace=wrap;html=1;fontSize=12;glass=0;strokeWidth=1;shadow=0;" parent="WIyWlLk6GJQsqaUBKTNV-1" vertex="1">
          <mxGeometry x="852.5" y="1500" width="120" height="40" as="geometry" />
        </mxCell>
        <mxCell id="3gFDN2M3ZXm_7jDwdWTa-18" value="no" style="edgeStyle=orthogonalEdgeStyle;rounded=0;orthogonalLoop=1;jettySize=auto;html=1;entryX=0.5;entryY=0;entryDx=0;entryDy=0;" parent="WIyWlLk6GJQsqaUBKTNV-1" source="3gFDN2M3ZXm_7jDwdWTa-14" target="3gFDN2M3ZXm_7jDwdWTa-27" edge="1">
          <mxGeometry relative="1" as="geometry">
            <mxPoint x="922.5" y="1760" as="targetPoint" />
          </mxGeometry>
        </mxCell>
        <mxCell id="3gFDN2M3ZXm_7jDwdWTa-20" value="yes" style="edgeStyle=orthogonalEdgeStyle;rounded=0;orthogonalLoop=1;jettySize=auto;html=1;entryX=0;entryY=0.5;entryDx=0;entryDy=0;" parent="WIyWlLk6GJQsqaUBKTNV-1" source="3gFDN2M3ZXm_7jDwdWTa-14" target="3gFDN2M3ZXm_7jDwdWTa-19" edge="1">
          <mxGeometry relative="1" as="geometry" />
        </mxCell>
        <mxCell id="3gFDN2M3ZXm_7jDwdWTa-14" value="cpu_allowed == 1 ?" style="rhombus;whiteSpace=wrap;html=1;shadow=0;fontFamily=Helvetica;fontSize=12;align=center;strokeWidth=1;spacing=6;spacingTop=-4;" parent="WIyWlLk6GJQsqaUBKTNV-1" vertex="1">
          <mxGeometry x="832.5" y="1580" width="160" height="90" as="geometry" />
        </mxCell>
        <mxCell id="3gFDN2M3ZXm_7jDwdWTa-24" value="goto direct" style="edgeStyle=orthogonalEdgeStyle;rounded=0;orthogonalLoop=1;jettySize=auto;html=1;entryX=0;entryY=0.5;entryDx=0;entryDy=0;" parent="WIyWlLk6GJQsqaUBKTNV-1" source="3gFDN2M3ZXm_7jDwdWTa-19" target="3gFDN2M3ZXm_7jDwdWTa-23" edge="1">
          <mxGeometry relative="1" as="geometry" />
        </mxCell>
        <mxCell id="3gFDN2M3ZXm_7jDwdWTa-19" value="cpu = prev_cpu" style="rounded=1;whiteSpace=wrap;html=1;fontSize=12;glass=0;strokeWidth=1;shadow=0;" parent="WIyWlLk6GJQsqaUBKTNV-1" vertex="1">
          <mxGeometry x="1092.5" y="1605" width="120" height="40" as="geometry" />
        </mxCell>
        <mxCell id="3gFDN2M3ZXm_7jDwdWTa-23" value="task&#39;s dispatch_local flag set to true&lt;div&gt;return cpu&lt;/div&gt;" style="rounded=1;whiteSpace=wrap;html=1;fontSize=12;glass=0;strokeWidth=1;shadow=0;" parent="WIyWlLk6GJQsqaUBKTNV-1" vertex="1">
          <mxGeometry x="1682.5" y="1590" width="230" height="70" as="geometry" />
        </mxCell>
        <mxCell id="3gFDN2M3ZXm_7jDwdWTa-29" value="yes" style="edgeStyle=orthogonalEdgeStyle;rounded=0;orthogonalLoop=1;jettySize=auto;html=1;entryX=0;entryY=0.5;entryDx=0;entryDy=0;" parent="WIyWlLk6GJQsqaUBKTNV-1" source="3gFDN2M3ZXm_7jDwdWTa-27" target="3gFDN2M3ZXm_7jDwdWTa-28" edge="1">
          <mxGeometry relative="1" as="geometry" />
        </mxCell>
        <mxCell id="3gFDN2M3ZXm_7jDwdWTa-48" style="edgeStyle=orthogonalEdgeStyle;rounded=0;orthogonalLoop=1;jettySize=auto;html=1;entryX=0.5;entryY=0;entryDx=0;entryDy=0;" parent="WIyWlLk6GJQsqaUBKTNV-1" source="3gFDN2M3ZXm_7jDwdWTa-27" target="3gFDN2M3ZXm_7jDwdWTa-44" edge="1">
          <mxGeometry relative="1" as="geometry" />
        </mxCell>
        <mxCell id="3gFDN2M3ZXm_7jDwdWTa-27" value="flag WAKE_SYNC&amp;nbsp;&lt;div&gt;and&lt;/div&gt;&lt;div&gt;&amp;nbsp;there are idle CPUs on this core ?&lt;/div&gt;" style="rhombus;whiteSpace=wrap;html=1;shadow=0;fontFamily=Helvetica;fontSize=12;align=center;strokeWidth=1;spacing=6;spacingTop=-4;" parent="WIyWlLk6GJQsqaUBKTNV-1" vertex="1">
          <mxGeometry x="792.5" y="1770" width="240" height="140" as="geometry" />
        </mxCell>
        <mxCell id="3gFDN2M3ZXm_7jDwdWTa-30" value="if cpu &amp;gt;= 0" style="edgeStyle=orthogonalEdgeStyle;rounded=0;orthogonalLoop=1;jettySize=auto;html=1;" parent="WIyWlLk6GJQsqaUBKTNV-1" source="3gFDN2M3ZXm_7jDwdWTa-28" edge="1">
          <mxGeometry x="-0.5568" relative="1" as="geometry">
            <mxPoint x="1452.5" y="1640" as="targetPoint" />
            <Array as="points">
              <mxPoint x="1452.5" y="1840" />
            </Array>
            <mxPoint as="offset" />
          </mxGeometry>
        </mxCell>
        <mxCell id="r0mocuaABx4dHT3lAcT5-1" value="if cpu &amp;lt; 0" style="edgeStyle=orthogonalEdgeStyle;rounded=0;orthogonalLoop=1;jettySize=auto;html=1;entryX=0.5;entryY=0;entryDx=0;entryDy=0;exitX=0.5;exitY=1;exitDx=0;exitDy=0;" parent="WIyWlLk6GJQsqaUBKTNV-1" source="3gFDN2M3ZXm_7jDwdWTa-28" target="3gFDN2M3ZXm_7jDwdWTa-44" edge="1">
          <mxGeometry relative="1" as="geometry">
            <mxPoint x="940" y="1970" as="targetPoint" />
            <Array as="points">
              <mxPoint x="1213" y="1960" />
              <mxPoint x="913" y="1960" />
            </Array>
          </mxGeometry>
        </mxCell>
        <mxCell id="3gFDN2M3ZXm_7jDwdWTa-28" value="cpu = try_sync_wakeup()" style="rounded=1;whiteSpace=wrap;html=1;fontSize=12;glass=0;strokeWidth=1;shadow=0;" parent="WIyWlLk6GJQsqaUBKTNV-1" vertex="1">
          <mxGeometry x="1152.5" y="1820" width="120" height="40" as="geometry" />
        </mxCell>
        <mxCell id="3gFDN2M3ZXm_7jDwdWTa-50" value="no" style="edgeStyle=orthogonalEdgeStyle;rounded=0;orthogonalLoop=1;jettySize=auto;html=1;entryX=0.5;entryY=0;entryDx=0;entryDy=0;" parent="WIyWlLk6GJQsqaUBKTNV-1" source="3gFDN2M3ZXm_7jDwdWTa-44" target="3gFDN2M3ZXm_7jDwdWTa-51" edge="1">
          <mxGeometry relative="1" as="geometry">
            <mxPoint x="912.5" y="2190" as="targetPoint" />
          </mxGeometry>
        </mxCell>
        <mxCell id="3gFDN2M3ZXm_7jDwdWTa-55" value="yes" style="edgeStyle=orthogonalEdgeStyle;rounded=0;orthogonalLoop=1;jettySize=auto;html=1;entryX=0;entryY=0.5;entryDx=0;entryDy=0;" parent="WIyWlLk6GJQsqaUBKTNV-1" source="3gFDN2M3ZXm_7jDwdWTa-44" target="3gFDN2M3ZXm_7jDwdWTa-56" edge="1">
          <mxGeometry relative="1" as="geometry">
            <mxPoint x="642.5" y="2042" as="targetPoint" />
          </mxGeometry>
        </mxCell>
        <mxCell id="3gFDN2M3ZXm_7jDwdWTa-44" value="did the process get pulled to a foreign domain ?" style="rhombus;whiteSpace=wrap;html=1;shadow=0;fontFamily=Helvetica;fontSize=12;align=center;strokeWidth=1;spacing=6;spacingTop=-4;" parent="WIyWlLk6GJQsqaUBKTNV-1" vertex="1">
          <mxGeometry x="787.5" y="1972" width="250" height="140" as="geometry" />
        </mxCell>
        <mxCell id="3gFDN2M3ZXm_7jDwdWTa-53" value="yes" style="edgeStyle=orthogonalEdgeStyle;rounded=0;orthogonalLoop=1;jettySize=auto;html=1;entryX=0;entryY=0.5;entryDx=0;entryDy=0;" parent="WIyWlLk6GJQsqaUBKTNV-1" source="3gFDN2M3ZXm_7jDwdWTa-51" target="3gFDN2M3ZXm_7jDwdWTa-52" edge="1">
          <mxGeometry relative="1" as="geometry" />
        </mxCell>
        <mxCell id="3gFDN2M3ZXm_7jDwdWTa-60" value="no" style="edgeStyle=orthogonalEdgeStyle;rounded=0;orthogonalLoop=1;jettySize=auto;html=1;entryX=0.5;entryY=0;entryDx=0;entryDy=0;" parent="WIyWlLk6GJQsqaUBKTNV-1" source="3gFDN2M3ZXm_7jDwdWTa-51" target="3gFDN2M3ZXm_7jDwdWTa-62" edge="1">
          <mxGeometry relative="1" as="geometry">
            <mxPoint x="912.5" y="2370" as="targetPoint" />
          </mxGeometry>
        </mxCell>
        <mxCell id="3gFDN2M3ZXm_7jDwdWTa-51" value="is prev_cpu idle ?" style="rhombus;whiteSpace=wrap;html=1;shadow=0;fontFamily=Helvetica;fontSize=12;align=center;strokeWidth=1;spacing=6;spacingTop=-4;" parent="WIyWlLk6GJQsqaUBKTNV-1" vertex="1">
          <mxGeometry x="842.5" y="2200" width="140" height="80" as="geometry" />
        </mxCell>
        <mxCell id="3gFDN2M3ZXm_7jDwdWTa-54" style="edgeStyle=orthogonalEdgeStyle;rounded=0;orthogonalLoop=1;jettySize=auto;html=1;endArrow=oval;endFill=1;" parent="WIyWlLk6GJQsqaUBKTNV-1" source="3gFDN2M3ZXm_7jDwdWTa-52" edge="1">
          <mxGeometry relative="1" as="geometry">
            <mxPoint x="1452.5" y="1840" as="targetPoint" />
            <Array as="points">
              <mxPoint x="1682.5" y="2240" />
              <mxPoint x="1682.5" y="1840" />
            </Array>
          </mxGeometry>
        </mxCell>
        <mxCell id="3gFDN2M3ZXm_7jDwdWTa-52" value="cpu = prev_cpu" style="rounded=1;whiteSpace=wrap;html=1;fontSize=12;glass=0;strokeWidth=1;shadow=0;" parent="WIyWlLk6GJQsqaUBKTNV-1" vertex="1">
          <mxGeometry x="1422.5" y="2220" width="120" height="40" as="geometry" />
        </mxCell>
        <mxCell id="3gFDN2M3ZXm_7jDwdWTa-58" value="yes" style="edgeStyle=orthogonalEdgeStyle;rounded=0;orthogonalLoop=1;jettySize=auto;html=1;entryX=0;entryY=0.5;entryDx=0;entryDy=0;" parent="WIyWlLk6GJQsqaUBKTNV-1" source="3gFDN2M3ZXm_7jDwdWTa-56" target="3gFDN2M3ZXm_7jDwdWTa-57" edge="1">
          <mxGeometry relative="1" as="geometry" />
        </mxCell>
        <mxCell id="3gFDN2M3ZXm_7jDwdWTa-61" value="no" style="edgeStyle=orthogonalEdgeStyle;rounded=0;orthogonalLoop=1;jettySize=auto;html=1;entryX=0.5;entryY=0;entryDx=0;entryDy=0;" parent="WIyWlLk6GJQsqaUBKTNV-1" source="3gFDN2M3ZXm_7jDwdWTa-56" target="3gFDN2M3ZXm_7jDwdWTa-62" edge="1">
          <mxGeometry x="-0.162" relative="1" as="geometry">
            <mxPoint x="912.5" y="2370" as="targetPoint" />
            <Array as="points">
              <mxPoint x="1227.5" y="2130" />
              <mxPoint x="1042.5" y="2130" />
              <mxPoint x="1042.5" y="2370" />
              <mxPoint x="917.5" y="2370" />
            </Array>
            <mxPoint as="offset" />
          </mxGeometry>
        </mxCell>
        <mxCell id="3gFDN2M3ZXm_7jDwdWTa-56" value="is prev_cpu in direct_greedy_mask ?&lt;div&gt;and&amp;nbsp;&lt;/div&gt;&lt;div&gt;is prev_cpu idle ?&lt;/div&gt;" style="rhombus;whiteSpace=wrap;html=1;shadow=0;fontFamily=Helvetica;fontSize=12;align=center;strokeWidth=1;spacing=6;spacingTop=-4;" parent="WIyWlLk6GJQsqaUBKTNV-1" vertex="1">
          <mxGeometry x="1092.5" y="1967" width="270" height="150" as="geometry" />
        </mxCell>
        <mxCell id="3gFDN2M3ZXm_7jDwdWTa-59" style="edgeStyle=orthogonalEdgeStyle;rounded=0;orthogonalLoop=1;jettySize=auto;html=1;endArrow=oval;endFill=1;" parent="WIyWlLk6GJQsqaUBKTNV-1" source="3gFDN2M3ZXm_7jDwdWTa-57" edge="1">
          <mxGeometry relative="1" as="geometry">
            <mxPoint x="1452.5" y="1840" as="targetPoint" />
            <Array as="points">
              <mxPoint x="1603" y="1970" />
              <mxPoint x="1453" y="1970" />
            </Array>
          </mxGeometry>
        </mxCell>
        <mxCell id="3gFDN2M3ZXm_7jDwdWTa-57" value="cpu = prev_cpu" style="rounded=1;whiteSpace=wrap;html=1;fontSize=12;glass=0;strokeWidth=1;shadow=0;" parent="WIyWlLk6GJQsqaUBKTNV-1" vertex="1">
          <mxGeometry x="1542.5" y="2022" width="120" height="40" as="geometry" />
        </mxCell>
        <mxCell id="3gFDN2M3ZXm_7jDwdWTa-64" style="edgeStyle=orthogonalEdgeStyle;rounded=0;orthogonalLoop=1;jettySize=auto;html=1;entryX=0.5;entryY=0;entryDx=0;entryDy=0;" parent="WIyWlLk6GJQsqaUBKTNV-1" source="3gFDN2M3ZXm_7jDwdWTa-62" target="3gFDN2M3ZXm_7jDwdWTa-63" edge="1">
          <mxGeometry relative="1" as="geometry" />
        </mxCell>
        <mxCell id="3gFDN2M3ZXm_7jDwdWTa-62" value="at this point, prev_cpu didn&#39;t work out&lt;div&gt;Let&#39;s look for an idle cpu in the domain otherwise we&#39;ll look for an idle cpu in a foreing domain&lt;/div&gt;" style="rounded=1;whiteSpace=wrap;html=1;fontSize=12;glass=0;strokeWidth=1;shadow=0;" parent="WIyWlLk6GJQsqaUBKTNV-1" vertex="1">
          <mxGeometry x="797.5" y="2390" width="240" height="120" as="geometry" />
        </mxCell>
        <mxCell id="3gFDN2M3ZXm_7jDwdWTa-66" value="yes" style="edgeStyle=orthogonalEdgeStyle;rounded=0;orthogonalLoop=1;jettySize=auto;html=1;entryX=0;entryY=0.5;entryDx=0;entryDy=0;" parent="WIyWlLk6GJQsqaUBKTNV-1" source="3gFDN2M3ZXm_7jDwdWTa-63" target="3gFDN2M3ZXm_7jDwdWTa-65" edge="1">
          <mxGeometry relative="1" as="geometry" />
        </mxCell>
        <mxCell id="3gFDN2M3ZXm_7jDwdWTa-69" value="no" style="edgeStyle=orthogonalEdgeStyle;rounded=0;orthogonalLoop=1;jettySize=auto;html=1;" parent="WIyWlLk6GJQsqaUBKTNV-1" source="3gFDN2M3ZXm_7jDwdWTa-63" target="3gFDN2M3ZXm_7jDwdWTa-68" edge="1">
          <mxGeometry relative="1" as="geometry" />
        </mxCell>
        <mxCell id="3gFDN2M3ZXm_7jDwdWTa-63" value="is there a domestic idle_core ?" style="rhombus;whiteSpace=wrap;html=1;shadow=0;fontFamily=Helvetica;fontSize=12;align=center;strokeWidth=1;spacing=6;spacingTop=-4;" parent="WIyWlLk6GJQsqaUBKTNV-1" vertex="1">
          <mxGeometry x="837.5" y="2560" width="160" height="110" as="geometry" />
        </mxCell>
        <mxCell id="3gFDN2M3ZXm_7jDwdWTa-67" value="if cpu &amp;gt;= 0" style="edgeStyle=orthogonalEdgeStyle;rounded=0;orthogonalLoop=1;jettySize=auto;html=1;endArrow=oval;endFill=1;" parent="WIyWlLk6GJQsqaUBKTNV-1" source="3gFDN2M3ZXm_7jDwdWTa-65" edge="1">
          <mxGeometry x="-0.636" relative="1" as="geometry">
            <mxPoint x="1683" y="2240" as="targetPoint" />
            <mxPoint x="1" as="offset" />
          </mxGeometry>
        </mxCell>
        <mxCell id="r0mocuaABx4dHT3lAcT5-2" value="if cpu &amp;lt; 0" style="edgeStyle=orthogonalEdgeStyle;rounded=0;orthogonalLoop=1;jettySize=auto;html=1;entryX=0.5;entryY=0;entryDx=0;entryDy=0;" parent="WIyWlLk6GJQsqaUBKTNV-1" source="3gFDN2M3ZXm_7jDwdWTa-65" target="3gFDN2M3ZXm_7jDwdWTa-68" edge="1">
          <mxGeometry relative="1" as="geometry">
            <Array as="points">
              <mxPoint x="1303" y="2710" />
              <mxPoint x="980" y="2710" />
              <mxPoint x="980" y="2770" />
            </Array>
          </mxGeometry>
        </mxCell>
        <mxCell id="3gFDN2M3ZXm_7jDwdWTa-65" value="cpu = pick_idle_cpu" style="rounded=1;whiteSpace=wrap;html=1;fontSize=12;glass=0;strokeWidth=1;shadow=0;" parent="WIyWlLk6GJQsqaUBKTNV-1" vertex="1">
          <mxGeometry x="1257.5" y="2595" width="120" height="40" as="geometry" />
        </mxCell>
        <mxCell id="3gFDN2M3ZXm_7jDwdWTa-71" value="yes" style="edgeStyle=orthogonalEdgeStyle;rounded=0;orthogonalLoop=1;jettySize=auto;html=1;" parent="WIyWlLk6GJQsqaUBKTNV-1" source="3gFDN2M3ZXm_7jDwdWTa-68" target="3gFDN2M3ZXm_7jDwdWTa-70" edge="1">
          <mxGeometry relative="1" as="geometry" />
        </mxCell>
        <mxCell id="3gFDN2M3ZXm_7jDwdWTa-75" value="no" style="edgeStyle=orthogonalEdgeStyle;rounded=0;orthogonalLoop=1;jettySize=auto;html=1;" parent="WIyWlLk6GJQsqaUBKTNV-1" source="3gFDN2M3ZXm_7jDwdWTa-68" target="3gFDN2M3ZXm_7jDwdWTa-74" edge="1">
          <mxGeometry relative="1" as="geometry" />
        </mxCell>
        <mxCell id="3gFDN2M3ZXm_7jDwdWTa-68" value="was prev_cpu in the domestic domain&amp;nbsp;&lt;div&gt;and&lt;/div&gt;&lt;div&gt;&amp;nbsp;is it idle ?&lt;/div&gt;" style="rhombus;whiteSpace=wrap;html=1;shadow=0;fontFamily=Helvetica;fontSize=12;align=center;strokeWidth=1;spacing=6;spacingTop=-4;" parent="WIyWlLk6GJQsqaUBKTNV-1" vertex="1">
          <mxGeometry x="775" y="2770" width="285" height="140" as="geometry" />
        </mxCell>
        <mxCell id="3gFDN2M3ZXm_7jDwdWTa-72" style="edgeStyle=orthogonalEdgeStyle;rounded=0;orthogonalLoop=1;jettySize=auto;html=1;endArrow=oval;endFill=1;" parent="WIyWlLk6GJQsqaUBKTNV-1" source="3gFDN2M3ZXm_7jDwdWTa-70" edge="1">
          <mxGeometry relative="1" as="geometry">
            <mxPoint x="1683" y="2610" as="targetPoint" />
          </mxGeometry>
        </mxCell>
        <mxCell id="3gFDN2M3ZXm_7jDwdWTa-70" value="cpu = prev_cpu" style="rounded=1;whiteSpace=wrap;html=1;fontSize=12;glass=0;strokeWidth=1;shadow=0;" parent="WIyWlLk6GJQsqaUBKTNV-1" vertex="1">
          <mxGeometry x="1242.5" y="2815" width="120" height="40" as="geometry" />
        </mxCell>
        <mxCell id="3gFDN2M3ZXm_7jDwdWTa-73" value="note : this choice might improve L1/2 locality" style="rounded=1;whiteSpace=wrap;html=1;fontSize=12;glass=0;strokeWidth=1;shadow=0;dashed=1;dashPattern=12 12;" parent="WIyWlLk6GJQsqaUBKTNV-1" vertex="1">
          <mxGeometry x="1132.5" y="2750" width="140" height="75" as="geometry" />
        </mxCell>
        <mxCell id="3gFDN2M3ZXm_7jDwdWTa-77" value="yes" style="edgeStyle=orthogonalEdgeStyle;rounded=0;orthogonalLoop=1;jettySize=auto;html=1;entryX=0;entryY=0.5;entryDx=0;entryDy=0;" parent="WIyWlLk6GJQsqaUBKTNV-1" source="3gFDN2M3ZXm_7jDwdWTa-74" target="3gFDN2M3ZXm_7jDwdWTa-76" edge="1">
          <mxGeometry relative="1" as="geometry" />
        </mxCell>
        <mxCell id="3gFDN2M3ZXm_7jDwdWTa-82" value="no" style="edgeStyle=orthogonalEdgeStyle;rounded=0;orthogonalLoop=1;jettySize=auto;html=1;entryX=0.5;entryY=0;entryDx=0;entryDy=0;" parent="WIyWlLk6GJQsqaUBKTNV-1" source="3gFDN2M3ZXm_7jDwdWTa-74" target="r0mocuaABx4dHT3lAcT5-3" edge="1">
          <mxGeometry relative="1" as="geometry" />
        </mxCell>
        <mxCell id="3gFDN2M3ZXm_7jDwdWTa-74" value="is there any domestic idle CPU ?" style="rhombus;whiteSpace=wrap;html=1;shadow=0;fontFamily=Helvetica;fontSize=12;align=center;strokeWidth=1;spacing=6;spacingTop=-4;" parent="WIyWlLk6GJQsqaUBKTNV-1" vertex="1">
          <mxGeometry x="770" y="2970" width="285" height="140" as="geometry" />
        </mxCell>
        <mxCell id="3gFDN2M3ZXm_7jDwdWTa-78" style="edgeStyle=orthogonalEdgeStyle;rounded=0;orthogonalLoop=1;jettySize=auto;html=1;" parent="WIyWlLk6GJQsqaUBKTNV-1" source="3gFDN2M3ZXm_7jDwdWTa-76" edge="1">
          <mxGeometry relative="1" as="geometry">
            <mxPoint x="1682.5" y="2830" as="targetPoint" />
          </mxGeometry>
        </mxCell>
        <mxCell id="3gFDN2M3ZXm_7jDwdWTa-76" value="cpu = pick_idle_cpu" style="rounded=1;whiteSpace=wrap;html=1;fontSize=12;glass=0;strokeWidth=1;shadow=0;" parent="WIyWlLk6GJQsqaUBKTNV-1" vertex="1">
          <mxGeometry x="1262.5" y="3020" width="120" height="40" as="geometry" />
        </mxCell>
        <mxCell id="3gFDN2M3ZXm_7jDwdWTa-85" value="no" style="edgeStyle=orthogonalEdgeStyle;rounded=0;orthogonalLoop=1;jettySize=auto;html=1;entryX=0.5;entryY=0;entryDx=0;entryDy=0;" parent="WIyWlLk6GJQsqaUBKTNV-1" source="3gFDN2M3ZXm_7jDwdWTa-83" target="3gFDN2M3ZXm_7jDwdWTa-86" edge="1">
          <mxGeometry relative="1" as="geometry">
            <mxPoint x="922.5" y="3970" as="targetPoint" />
          </mxGeometry>
        </mxCell>
        <mxCell id="3gFDN2M3ZXm_7jDwdWTa-87" value="yes" style="edgeStyle=orthogonalEdgeStyle;rounded=0;orthogonalLoop=1;jettySize=auto;html=1;entryX=0.5;entryY=0;entryDx=0;entryDy=0;exitX=1;exitY=0.5;exitDx=0;exitDy=0;" parent="WIyWlLk6GJQsqaUBKTNV-1" source="3gFDN2M3ZXm_7jDwdWTa-83" target="3gFDN2M3ZXm_7jDwdWTa-89" edge="1">
          <mxGeometry relative="1" as="geometry">
            <mxPoint x="1192.5" y="3820" as="targetPoint" />
            <Array as="points">
              <mxPoint x="1070" y="3820" />
              <mxPoint x="1133" y="3820" />
              <mxPoint x="1133" y="4147" />
            </Array>
          </mxGeometry>
        </mxCell>
        <mxCell id="3gFDN2M3ZXm_7jDwdWTa-83" value="can we look in other NUMA nodes ?" style="rhombus;whiteSpace=wrap;html=1;shadow=0;fontFamily=Helvetica;fontSize=12;align=center;strokeWidth=1;spacing=6;spacingTop=-4;" parent="WIyWlLk6GJQsqaUBKTNV-1" vertex="1">
          <mxGeometry x="757.5" y="3630" width="285" height="140" as="geometry" />
        </mxCell>
        <mxCell id="3gFDN2M3ZXm_7jDwdWTa-88" style="edgeStyle=orthogonalEdgeStyle;rounded=0;orthogonalLoop=1;jettySize=auto;html=1;entryX=0.5;entryY=0;entryDx=0;entryDy=0;" parent="WIyWlLk6GJQsqaUBKTNV-1" source="3gFDN2M3ZXm_7jDwdWTa-86" target="3gFDN2M3ZXm_7jDwdWTa-89" edge="1">
          <mxGeometry relative="1" as="geometry">
            <mxPoint x="922.5" y="4141" as="targetPoint" />
          </mxGeometry>
        </mxCell>
        <mxCell id="3gFDN2M3ZXm_7jDwdWTa-86" value="cpumask node_mask = domain&#39;s cpumask&lt;div&gt;tmp_cpumask = node_mask &amp;amp; tmp_direct_greedy&lt;/div&gt;&lt;div&gt;tmp_direct_greedy = tmp_cpumask&lt;/div&gt;&lt;div&gt;&lt;br&gt;&lt;/div&gt;" style="rounded=1;whiteSpace=wrap;html=1;fontSize=12;glass=0;strokeWidth=1;shadow=0;" parent="WIyWlLk6GJQsqaUBKTNV-1" vertex="1">
          <mxGeometry x="762.5" y="3890" width="270" height="97" as="geometry" />
        </mxCell>
        <mxCell id="3gFDN2M3ZXm_7jDwdWTa-92" value="yes" style="edgeStyle=orthogonalEdgeStyle;rounded=0;orthogonalLoop=1;jettySize=auto;html=1;entryX=0.5;entryY=0;entryDx=0;entryDy=0;" parent="WIyWlLk6GJQsqaUBKTNV-1" source="3gFDN2M3ZXm_7jDwdWTa-89" target="3gFDN2M3ZXm_7jDwdWTa-90" edge="1">
          <mxGeometry relative="1" as="geometry" />
        </mxCell>
        <mxCell id="3gFDN2M3ZXm_7jDwdWTa-89" value="is there an idle core ?" style="rhombus;whiteSpace=wrap;html=1;shadow=0;fontFamily=Helvetica;fontSize=12;align=center;strokeWidth=1;spacing=6;spacingTop=-4;" parent="WIyWlLk6GJQsqaUBKTNV-1" vertex="1">
          <mxGeometry x="755" y="4147" width="285" height="140" as="geometry" />
        </mxCell>
        <mxCell id="3gFDN2M3ZXm_7jDwdWTa-95" value="yes" style="edgeStyle=orthogonalEdgeStyle;rounded=0;orthogonalLoop=1;jettySize=auto;html=1;entryX=0;entryY=0.5;entryDx=0;entryDy=0;" parent="WIyWlLk6GJQsqaUBKTNV-1" source="3gFDN2M3ZXm_7jDwdWTa-90" target="3gFDN2M3ZXm_7jDwdWTa-93" edge="1">
          <mxGeometry relative="1" as="geometry" />
        </mxCell>
        <mxCell id="3gFDN2M3ZXm_7jDwdWTa-97" value="no" style="edgeStyle=orthogonalEdgeStyle;rounded=0;orthogonalLoop=1;jettySize=auto;html=1;entryX=0.5;entryY=0;entryDx=0;entryDy=0;exitX=0.5;exitY=1;exitDx=0;exitDy=0;" parent="WIyWlLk6GJQsqaUBKTNV-1" source="3gFDN2M3ZXm_7jDwdWTa-90" target="3gFDN2M3ZXm_7jDwdWTa-98" edge="1">
          <mxGeometry relative="1" as="geometry">
            <mxPoint x="922.5" y="4530" as="targetPoint" />
            <mxPoint x="922.5" y="4460" as="sourcePoint" />
          </mxGeometry>
        </mxCell>
        <mxCell id="3gFDN2M3ZXm_7jDwdWTa-90" value="is there an idle core in the domain ?" style="rhombus;whiteSpace=wrap;html=1;shadow=0;fontFamily=Helvetica;fontSize=12;align=center;strokeWidth=1;spacing=6;spacingTop=-4;" parent="WIyWlLk6GJQsqaUBKTNV-1" vertex="1">
          <mxGeometry x="766.25" y="4361.5" width="262.5" height="100" as="geometry" />
        </mxCell>
        <mxCell id="3gFDN2M3ZXm_7jDwdWTa-96" value="if cpu &amp;gt;= 0" style="edgeStyle=orthogonalEdgeStyle;rounded=0;orthogonalLoop=1;jettySize=auto;html=1;endArrow=oval;endFill=1;" parent="WIyWlLk6GJQsqaUBKTNV-1" source="3gFDN2M3ZXm_7jDwdWTa-93" edge="1">
          <mxGeometry x="-0.842" relative="1" as="geometry">
            <mxPoint x="1683" y="3040" as="targetPoint" />
            <mxPoint x="1" as="offset" />
          </mxGeometry>
        </mxCell>
        <mxCell id="r0mocuaABx4dHT3lAcT5-11" value="if cpu &amp;lt; 0" style="edgeStyle=orthogonalEdgeStyle;rounded=0;orthogonalLoop=1;jettySize=auto;html=1;entryX=0.5;entryY=0;entryDx=0;entryDy=0;" parent="WIyWlLk6GJQsqaUBKTNV-1" source="3gFDN2M3ZXm_7jDwdWTa-93" target="3gFDN2M3ZXm_7jDwdWTa-98" edge="1">
          <mxGeometry relative="1" as="geometry">
            <Array as="points">
              <mxPoint x="1298" y="4490" />
              <mxPoint x="1060" y="4490" />
              <mxPoint x="1060" y="4540" />
            </Array>
          </mxGeometry>
        </mxCell>
        <mxCell id="3gFDN2M3ZXm_7jDwdWTa-93" value="cpu = pick_idle_cpu in the domain&#39;s direct_greedy_cpumask" style="rounded=1;whiteSpace=wrap;html=1;fontSize=12;glass=0;strokeWidth=1;shadow=0;" parent="WIyWlLk6GJQsqaUBKTNV-1" vertex="1">
          <mxGeometry x="1170" y="4364.5" width="270" height="97" as="geometry" />
        </mxCell>
        <mxCell id="3gFDN2M3ZXm_7jDwdWTa-100" value="yes" style="edgeStyle=orthogonalEdgeStyle;rounded=0;orthogonalLoop=1;jettySize=auto;html=1;entryX=0;entryY=0.5;entryDx=0;entryDy=0;" parent="WIyWlLk6GJQsqaUBKTNV-1" source="3gFDN2M3ZXm_7jDwdWTa-98" target="3gFDN2M3ZXm_7jDwdWTa-99" edge="1">
          <mxGeometry relative="1" as="geometry" />
        </mxCell>
        <mxCell id="3gFDN2M3ZXm_7jDwdWTa-103" style="edgeStyle=orthogonalEdgeStyle;rounded=0;orthogonalLoop=1;jettySize=auto;html=1;entryX=0.5;entryY=0;entryDx=0;entryDy=0;" parent="WIyWlLk6GJQsqaUBKTNV-1" source="3gFDN2M3ZXm_7jDwdWTa-98" target="3gFDN2M3ZXm_7jDwdWTa-102" edge="1">
          <mxGeometry relative="1" as="geometry" />
        </mxCell>
        <mxCell id="3gFDN2M3ZXm_7jDwdWTa-98" value="is there an under-utilized cpu ?" style="rhombus;whiteSpace=wrap;html=1;shadow=0;fontFamily=Helvetica;fontSize=12;align=center;strokeWidth=1;spacing=6;spacingTop=-4;" parent="WIyWlLk6GJQsqaUBKTNV-1" vertex="1">
          <mxGeometry x="766.25" y="4570" width="262.5" height="100" as="geometry" />
        </mxCell>
        <mxCell id="3gFDN2M3ZXm_7jDwdWTa-101" value="if cpu &amp;gt;= 0" style="edgeStyle=orthogonalEdgeStyle;rounded=0;orthogonalLoop=1;jettySize=auto;html=1;endArrow=oval;endFill=1;" parent="WIyWlLk6GJQsqaUBKTNV-1" source="3gFDN2M3ZXm_7jDwdWTa-99" edge="1">
          <mxGeometry x="-0.6009" y="-1" relative="1" as="geometry">
            <mxPoint x="1680" y="4410" as="targetPoint" />
            <mxPoint y="1" as="offset" />
          </mxGeometry>
        </mxCell>
        <mxCell id="r0mocuaABx4dHT3lAcT5-12" value="if cpu &amp;lt; 0" style="edgeStyle=orthogonalEdgeStyle;rounded=0;orthogonalLoop=1;jettySize=auto;html=1;entryX=1;entryY=0.5;entryDx=0;entryDy=0;" parent="WIyWlLk6GJQsqaUBKTNV-1" source="3gFDN2M3ZXm_7jDwdWTa-99" target="3gFDN2M3ZXm_7jDwdWTa-102" edge="1">
          <mxGeometry relative="1" as="geometry">
            <Array as="points">
              <mxPoint x="1298" y="4700" />
              <mxPoint x="1110" y="4700" />
              <mxPoint x="1110" y="4750" />
            </Array>
          </mxGeometry>
        </mxCell>
        <mxCell id="3gFDN2M3ZXm_7jDwdWTa-99" value="cpu = pick_idle_cpu in tmp_direct_greedy" style="rounded=1;whiteSpace=wrap;html=1;fontSize=12;glass=0;strokeWidth=1;shadow=0;" parent="WIyWlLk6GJQsqaUBKTNV-1" vertex="1">
          <mxGeometry x="1182.5" y="4570" width="270" height="97" as="geometry" />
        </mxCell>
        <mxCell id="3gFDN2M3ZXm_7jDwdWTa-105" style="edgeStyle=orthogonalEdgeStyle;rounded=0;orthogonalLoop=1;jettySize=auto;html=1;entryX=0.5;entryY=0;entryDx=0;entryDy=0;" parent="WIyWlLk6GJQsqaUBKTNV-1" source="3gFDN2M3ZXm_7jDwdWTa-102" target="3gFDN2M3ZXm_7jDwdWTa-104" edge="1">
          <mxGeometry relative="1" as="geometry" />
        </mxCell>
        <mxCell id="3gFDN2M3ZXm_7jDwdWTa-102" value="at this point we know there is no idle core&lt;div&gt;let&#39;s look for an idle cpu&lt;/div&gt;" style="rounded=1;whiteSpace=wrap;html=1;fontSize=12;glass=0;strokeWidth=1;shadow=0;" parent="WIyWlLk6GJQsqaUBKTNV-1" vertex="1">
          <mxGeometry x="762.5" y="4730" width="270" height="80" as="geometry" />
        </mxCell>
        <mxCell id="3gFDN2M3ZXm_7jDwdWTa-106" value="yes" style="edgeStyle=orthogonalEdgeStyle;rounded=0;orthogonalLoop=1;jettySize=auto;html=1;entryX=0;entryY=0.5;entryDx=0;entryDy=0;" parent="WIyWlLk6GJQsqaUBKTNV-1" source="3gFDN2M3ZXm_7jDwdWTa-104" target="3gFDN2M3ZXm_7jDwdWTa-107" edge="1">
          <mxGeometry relative="1" as="geometry">
            <mxPoint x="1112.5" y="4900" as="targetPoint" />
          </mxGeometry>
        </mxCell>
        <mxCell id="3gFDN2M3ZXm_7jDwdWTa-109" value="no" style="edgeStyle=orthogonalEdgeStyle;rounded=0;orthogonalLoop=1;jettySize=auto;html=1;entryX=0.5;entryY=0;entryDx=0;entryDy=0;" parent="WIyWlLk6GJQsqaUBKTNV-1" source="3gFDN2M3ZXm_7jDwdWTa-104" target="3gFDN2M3ZXm_7jDwdWTa-110" edge="1">
          <mxGeometry relative="1" as="geometry">
            <mxPoint x="932.5" y="5010" as="targetPoint" />
          </mxGeometry>
        </mxCell>
        <mxCell id="3gFDN2M3ZXm_7jDwdWTa-104" value="is there an under-utilized cpu in the domain ?" style="rhombus;whiteSpace=wrap;html=1;shadow=0;fontFamily=Helvetica;fontSize=12;align=center;strokeWidth=1;spacing=6;spacingTop=-4;" parent="WIyWlLk6GJQsqaUBKTNV-1" vertex="1">
          <mxGeometry x="766.25" y="4870" width="262.5" height="100" as="geometry" />
        </mxCell>
        <mxCell id="3gFDN2M3ZXm_7jDwdWTa-108" value="if cpu &amp;gt;= 0" style="edgeStyle=orthogonalEdgeStyle;rounded=0;orthogonalLoop=1;jettySize=auto;html=1;endArrow=oval;endFill=1;" parent="WIyWlLk6GJQsqaUBKTNV-1" source="3gFDN2M3ZXm_7jDwdWTa-107" edge="1">
          <mxGeometry x="-0.5169" relative="1" as="geometry">
            <mxPoint x="1680" y="4620" as="targetPoint" />
            <mxPoint x="1" as="offset" />
          </mxGeometry>
        </mxCell>
        <mxCell id="r0mocuaABx4dHT3lAcT5-13" value="if cpu &amp;lt; 0" style="edgeStyle=orthogonalEdgeStyle;rounded=0;orthogonalLoop=1;jettySize=auto;html=1;entryX=0.5;entryY=0;entryDx=0;entryDy=0;" parent="WIyWlLk6GJQsqaUBKTNV-1" source="3gFDN2M3ZXm_7jDwdWTa-107" target="3gFDN2M3ZXm_7jDwdWTa-110" edge="1">
          <mxGeometry relative="1" as="geometry">
            <Array as="points">
              <mxPoint x="1278" y="4980" />
              <mxPoint x="1020" y="4980" />
              <mxPoint x="1020" y="5040" />
            </Array>
          </mxGeometry>
        </mxCell>
        <mxCell id="3gFDN2M3ZXm_7jDwdWTa-107" value="cpu = pick_idle_cpu in the domain&#39;s direct_greedy_cpumask" style="rounded=1;whiteSpace=wrap;html=1;fontSize=12;glass=0;strokeWidth=1;shadow=0;" parent="WIyWlLk6GJQsqaUBKTNV-1" vertex="1">
          <mxGeometry x="1167.5" y="4873" width="270" height="97" as="geometry" />
        </mxCell>
        <mxCell id="3gFDN2M3ZXm_7jDwdWTa-111" value="yes" style="edgeStyle=orthogonalEdgeStyle;rounded=0;orthogonalLoop=1;jettySize=auto;html=1;entryX=0;entryY=0.5;entryDx=0;entryDy=0;" parent="WIyWlLk6GJQsqaUBKTNV-1" source="3gFDN2M3ZXm_7jDwdWTa-110" target="3gFDN2M3ZXm_7jDwdWTa-112" edge="1">
          <mxGeometry relative="1" as="geometry">
            <mxPoint x="1112.5" y="5090" as="targetPoint" />
          </mxGeometry>
        </mxCell>
        <mxCell id="3gFDN2M3ZXm_7jDwdWTa-114" value="no" style="edgeStyle=orthogonalEdgeStyle;rounded=0;orthogonalLoop=1;jettySize=auto;html=1;entryX=0.5;entryY=0;entryDx=0;entryDy=0;" parent="WIyWlLk6GJQsqaUBKTNV-1" source="3gFDN2M3ZXm_7jDwdWTa-110" target="3gFDN2M3ZXm_7jDwdWTa-115" edge="1">
          <mxGeometry relative="1" as="geometry">
            <mxPoint x="912.5" y="5210" as="targetPoint" />
          </mxGeometry>
        </mxCell>
        <mxCell id="3gFDN2M3ZXm_7jDwdWTa-110" value="is there an under-utilized cpu somewhere ?" style="rhombus;whiteSpace=wrap;html=1;shadow=0;fontFamily=Helvetica;fontSize=12;align=center;strokeWidth=1;spacing=6;spacingTop=-4;" parent="WIyWlLk6GJQsqaUBKTNV-1" vertex="1">
          <mxGeometry x="766.25" y="5050" width="262.5" height="100" as="geometry" />
        </mxCell>
        <mxCell id="3gFDN2M3ZXm_7jDwdWTa-113" value="if cpu &amp;gt;= 0" style="edgeStyle=orthogonalEdgeStyle;rounded=0;orthogonalLoop=1;jettySize=auto;html=1;endArrow=oval;endFill=1;" parent="WIyWlLk6GJQsqaUBKTNV-1" source="3gFDN2M3ZXm_7jDwdWTa-112" edge="1">
          <mxGeometry x="-0.3802" relative="1" as="geometry">
            <mxPoint x="1680" y="4900" as="targetPoint" />
            <mxPoint as="offset" />
          </mxGeometry>
        </mxCell>
        <mxCell id="r0mocuaABx4dHT3lAcT5-14" value="if cpu &amp;lt; 0" style="edgeStyle=orthogonalEdgeStyle;rounded=0;orthogonalLoop=1;jettySize=auto;html=1;entryX=1;entryY=0.5;entryDx=0;entryDy=0;" parent="WIyWlLk6GJQsqaUBKTNV-1" source="3gFDN2M3ZXm_7jDwdWTa-112" target="3gFDN2M3ZXm_7jDwdWTa-115" edge="1">
          <mxGeometry relative="1" as="geometry">
            <Array as="points">
              <mxPoint x="1268" y="5200" />
              <mxPoint x="1094" y="5200" />
              <mxPoint x="1094" y="5270" />
            </Array>
          </mxGeometry>
        </mxCell>
        <mxCell id="3gFDN2M3ZXm_7jDwdWTa-112" value="cpu = pick_idle_cpu in trmp_direct_greedy" style="rounded=1;whiteSpace=wrap;html=1;fontSize=12;glass=0;strokeWidth=1;shadow=0;" parent="WIyWlLk6GJQsqaUBKTNV-1" vertex="1">
          <mxGeometry x="1162.5" y="5051.5" width="270" height="97" as="geometry" />
        </mxCell>
        <mxCell id="3gFDN2M3ZXm_7jDwdWTa-118" style="edgeStyle=orthogonalEdgeStyle;rounded=0;orthogonalLoop=1;jettySize=auto;html=1;entryX=0.5;entryY=0;entryDx=0;entryDy=0;" parent="WIyWlLk6GJQsqaUBKTNV-1" source="3gFDN2M3ZXm_7jDwdWTa-115" target="3gFDN2M3ZXm_7jDwdWTa-117" edge="1">
          <mxGeometry relative="1" as="geometry" />
        </mxCell>
        <mxCell id="3gFDN2M3ZXm_7jDwdWTa-115" value="if we get here it&#39;s kinda bad&lt;div&gt;the task will be put on the domestic domain&#39;s dispacth queue which can lead to stalls if prev_cpu was in a different domain&lt;/div&gt;" style="rounded=1;whiteSpace=wrap;html=1;fontSize=12;glass=0;strokeWidth=1;shadow=0;" parent="WIyWlLk6GJQsqaUBKTNV-1" vertex="1">
          <mxGeometry x="762.5" y="5240" width="270" height="80" as="geometry" />
        </mxCell>
        <mxCell id="3gFDN2M3ZXm_7jDwdWTa-119" value="yes" style="edgeStyle=orthogonalEdgeStyle;rounded=0;orthogonalLoop=1;jettySize=auto;html=1;entryX=0;entryY=0.5;entryDx=0;entryDy=0;" parent="WIyWlLk6GJQsqaUBKTNV-1" source="3gFDN2M3ZXm_7jDwdWTa-117" target="3gFDN2M3ZXm_7jDwdWTa-120" edge="1">
          <mxGeometry relative="1" as="geometry">
            <mxPoint x="1142.5" y="5400" as="targetPoint" />
          </mxGeometry>
        </mxCell>
        <mxCell id="3gFDN2M3ZXm_7jDwdWTa-121" value="no" style="edgeStyle=orthogonalEdgeStyle;rounded=0;orthogonalLoop=1;jettySize=auto;html=1;entryX=0.5;entryY=0;entryDx=0;entryDy=0;" parent="WIyWlLk6GJQsqaUBKTNV-1" source="3gFDN2M3ZXm_7jDwdWTa-117" target="3gFDN2M3ZXm_7jDwdWTa-122" edge="1">
          <mxGeometry relative="1" as="geometry">
            <mxPoint x="918.75" y="5530" as="targetPoint" />
          </mxGeometry>
        </mxCell>
        <mxCell id="3gFDN2M3ZXm_7jDwdWTa-117" value="is prev_cpu part of the domain ?" style="rhombus;whiteSpace=wrap;html=1;shadow=0;fontFamily=Helvetica;fontSize=12;align=center;strokeWidth=1;spacing=6;spacingTop=-4;" parent="WIyWlLk6GJQsqaUBKTNV-1" vertex="1">
          <mxGeometry x="766.25" y="5380" width="262.5" height="100" as="geometry" />
        </mxCell>
        <mxCell id="3gFDN2M3ZXm_7jDwdWTa-126" style="edgeStyle=orthogonalEdgeStyle;rounded=0;orthogonalLoop=1;jettySize=auto;html=1;entryX=1;entryY=0.5;entryDx=0;entryDy=0;exitX=1;exitY=0.5;exitDx=0;exitDy=0;" parent="WIyWlLk6GJQsqaUBKTNV-1" source="3gFDN2M3ZXm_7jDwdWTa-120" target="3gFDN2M3ZXm_7jDwdWTa-125" edge="1">
          <mxGeometry relative="1" as="geometry">
            <Array as="points">
              <mxPoint x="1383" y="5430" />
              <mxPoint x="1383" y="5705" />
            </Array>
          </mxGeometry>
        </mxCell>
        <mxCell id="3gFDN2M3ZXm_7jDwdWTa-120" value="cpu = prev_cpu" style="rounded=1;whiteSpace=wrap;html=1;fontSize=12;glass=0;strokeWidth=1;shadow=0;" parent="WIyWlLk6GJQsqaUBKTNV-1" vertex="1">
          <mxGeometry x="1182.5" y="5395" width="180" height="70" as="geometry" />
        </mxCell>
        <mxCell id="3gFDN2M3ZXm_7jDwdWTa-123" style="edgeStyle=orthogonalEdgeStyle;rounded=0;orthogonalLoop=1;jettySize=auto;html=1;entryX=0.5;entryY=0;entryDx=0;entryDy=0;" parent="WIyWlLk6GJQsqaUBKTNV-1" source="3gFDN2M3ZXm_7jDwdWTa-122" target="3gFDN2M3ZXm_7jDwdWTa-125" edge="1">
          <mxGeometry relative="1" as="geometry">
            <mxPoint x="917.5" y="5670" as="targetPoint" />
          </mxGeometry>
        </mxCell>
        <mxCell id="3gFDN2M3ZXm_7jDwdWTa-122" value="cpu = pick_any_cpu in p_cpumask" style="rounded=1;whiteSpace=wrap;html=1;fontSize=12;glass=0;strokeWidth=1;shadow=0;" parent="WIyWlLk6GJQsqaUBKTNV-1" vertex="1">
          <mxGeometry x="807.5" y="5540" width="180" height="70" as="geometry" />
        </mxCell>
        <mxCell id="3gFDN2M3ZXm_7jDwdWTa-125" value="return cpu" style="rounded=1;whiteSpace=wrap;html=1;fontSize=12;glass=0;strokeWidth=1;shadow=0;" parent="WIyWlLk6GJQsqaUBKTNV-1" vertex="1">
          <mxGeometry x="807.5" y="5670" width="180" height="70" as="geometry" />
        </mxCell>
        <mxCell id="3gFDN2M3ZXm_7jDwdWTa-127" value="cpumasks and bool used" style="rounded=1;whiteSpace=wrap;html=1;fontSize=12;glass=0;strokeWidth=1;shadow=0;" parent="WIyWlLk6GJQsqaUBKTNV-1" vertex="1">
          <mxGeometry x="817.5" y="1090" width="170" height="50" as="geometry" />
        </mxCell>
        <mxCell id="3gFDN2M3ZXm_7jDwdWTa-128" value="&lt;b&gt;direct_greedy_cpumask&lt;/b&gt;&lt;div&gt;&lt;br&gt;&lt;/div&gt;&lt;div&gt;indicates if a domain is busy, if it&#39;s under-utilized&lt;/div&gt;&lt;div&gt;it&#39;s updated by tuner_step()&lt;/div&gt;" style="rounded=1;whiteSpace=wrap;html=1;fontSize=12;glass=0;strokeWidth=1;shadow=0;" parent="WIyWlLk6GJQsqaUBKTNV-1" vertex="1">
          <mxGeometry x="1232.5" y="1160" width="170" height="130" as="geometry" />
        </mxCell>
        <mxCell id="3gFDN2M3ZXm_7jDwdWTa-131" value="&lt;div&gt;&lt;b&gt;bool prev_domestic&lt;/b&gt;&lt;/div&gt;&lt;div&gt;&lt;b&gt;&lt;br&gt;&lt;/b&gt;&lt;/div&gt;&lt;div&gt;true if prev_cpu is in p_cpumask&amp;nbsp;&lt;/div&gt;&lt;div&gt;&amp;lt;=&amp;gt;&amp;nbsp;&lt;/div&gt;&lt;div&gt;the task didn&#39;t get pulled to another domain&amp;nbsp;&lt;/div&gt;" style="rounded=1;whiteSpace=wrap;html=1;fontSize=12;glass=0;strokeWidth=1;shadow=0;" parent="WIyWlLk6GJQsqaUBKTNV-1" vertex="1">
          <mxGeometry x="680" y="1340" width="170" height="130" as="geometry" />
        </mxCell>
        <mxCell id="3gFDN2M3ZXm_7jDwdWTa-132" value="&lt;div&gt;&lt;b&gt;bool has_idle_cores&lt;/b&gt;&lt;/div&gt;&lt;div&gt;&lt;b&gt;&lt;br&gt;&lt;/b&gt;&lt;/div&gt;&lt;div&gt;true if there are idle cores&lt;/div&gt;" style="rounded=1;whiteSpace=wrap;html=1;fontSize=12;glass=0;strokeWidth=1;shadow=0;" parent="WIyWlLk6GJQsqaUBKTNV-1" vertex="1">
          <mxGeometry x="950" y="1340" width="170" height="130" as="geometry" />
        </mxCell>
        <mxCell id="3gFDN2M3ZXm_7jDwdWTa-133" value="&lt;div&gt;&lt;b&gt;p_cpumask&lt;/b&gt;&lt;/div&gt;&lt;div&gt;&lt;b&gt;&lt;br&gt;&lt;/b&gt;&lt;/div&gt;&lt;div&gt;the cpumask of the task&amp;nbsp;&lt;/div&gt;&lt;div&gt;init &lt;b&gt;in task_set_domain()&lt;/b&gt;&lt;/div&gt;&lt;div&gt;Contains the CPUs of the task&#39;s domain&lt;/div&gt;" style="rounded=1;whiteSpace=wrap;html=1;fontSize=12;glass=0;strokeWidth=1;shadow=0;" parent="WIyWlLk6GJQsqaUBKTNV-1" vertex="1">
          <mxGeometry x="672.5" y="1171" width="170" height="130" as="geometry" />
        </mxCell>
        <mxCell id="r0mocuaABx4dHT3lAcT5-0" value="&lt;b&gt;idle_smtmask&lt;/b&gt;&lt;div&gt;&lt;b&gt;&lt;br&gt;&lt;/b&gt;&lt;/div&gt;&lt;div&gt;per-physical core cpumask&lt;/div&gt;&lt;div&gt;can be used to determine if an entire physical core is free&lt;/div&gt;" style="rounded=1;whiteSpace=wrap;html=1;fontSize=12;glass=0;strokeWidth=1;shadow=0;" parent="WIyWlLk6GJQsqaUBKTNV-1" vertex="1">
          <mxGeometry x="950" y="1160" width="170" height="130" as="geometry" />
        </mxCell>
        <mxCell id="r0mocuaABx4dHT3lAcT5-5" value="yes" style="edgeStyle=orthogonalEdgeStyle;rounded=0;orthogonalLoop=1;jettySize=auto;html=1;entryX=0.5;entryY=0;entryDx=0;entryDy=0;" parent="WIyWlLk6GJQsqaUBKTNV-1" source="r0mocuaABx4dHT3lAcT5-3" target="r0mocuaABx4dHT3lAcT5-9" edge="1">
          <mxGeometry relative="1" as="geometry" />
        </mxCell>
        <mxCell id="r0mocuaABx4dHT3lAcT5-3" value="are there CPUs which are idle and under-utilized ?&lt;div&gt;direct_greedy_cpumask&lt;/div&gt;" style="rhombus;whiteSpace=wrap;html=1;shadow=0;fontFamily=Helvetica;fontSize=12;align=center;strokeWidth=1;spacing=6;spacingTop=-4;" parent="WIyWlLk6GJQsqaUBKTNV-1" vertex="1">
          <mxGeometry x="750" y="3340" width="325" height="160" as="geometry" />
        </mxCell>
        <mxCell id="3gFDN2M3ZXm_7jDwdWTa-81" value="&lt;div&gt;we can ignore domain boundaries while respecting the NUMA ones&lt;/div&gt;" style="rounded=1;whiteSpace=wrap;html=1;fontSize=12;glass=0;strokeWidth=1;shadow=0;dashed=1;dashPattern=8 8;" parent="WIyWlLk6GJQsqaUBKTNV-1" vertex="1">
          <mxGeometry x="950" y="3300" width="270" height="97" as="geometry" />
        </mxCell>
        <mxCell id="r0mocuaABx4dHT3lAcT5-8" value="indicated by &lt;b&gt;direct_greedy_numa&lt;/b&gt;&lt;div&gt;it&#39;s false by default&amp;nbsp;&lt;/div&gt;" style="rounded=1;whiteSpace=wrap;html=1;fontSize=12;glass=0;strokeWidth=1;shadow=0;dashed=1;dashPattern=8 8;" parent="WIyWlLk6GJQsqaUBKTNV-1" vertex="1">
          <mxGeometry x="930" y="3610" width="210" height="70" as="geometry" />
        </mxCell>
        <mxCell id="r0mocuaABx4dHT3lAcT5-10" style="edgeStyle=orthogonalEdgeStyle;rounded=0;orthogonalLoop=1;jettySize=auto;html=1;entryX=0.5;entryY=0;entryDx=0;entryDy=0;" parent="WIyWlLk6GJQsqaUBKTNV-1" source="r0mocuaABx4dHT3lAcT5-9" target="3gFDN2M3ZXm_7jDwdWTa-83" edge="1">
          <mxGeometry relative="1" as="geometry" />
        </mxCell>
        <mxCell id="r0mocuaABx4dHT3lAcT5-9" value="&lt;div&gt;cpumask tmp_direct_greedy = direct_greedy_cpumask&lt;/div&gt;" style="rounded=1;whiteSpace=wrap;html=1;fontSize=12;glass=0;strokeWidth=1;shadow=0;" parent="WIyWlLk6GJQsqaUBKTNV-1" vertex="1">
          <mxGeometry x="430" y="3560" width="270" height="97" as="geometry" />
        </mxCell>
        <mxCell id="r0mocuaABx4dHT3lAcT5-15" value="&lt;b&gt;tuner.step() &lt;/b&gt;called in &lt;b&gt;main.rs&lt;/b&gt;&lt;div&gt;&lt;b&gt;&lt;br&gt;&lt;/b&gt;&lt;/div&gt;&lt;div&gt;updates direct_greedy_mask at high frequency (100ms)&lt;/div&gt;&lt;div&gt;according to some threshold that can be chosen by the user&lt;/div&gt;&lt;div&gt;&lt;br&gt;&lt;/div&gt;&lt;div&gt;&lt;br&gt;&lt;/div&gt;" style="rounded=1;whiteSpace=wrap;html=1;fontSize=12;glass=0;strokeWidth=1;shadow=0;" parent="WIyWlLk6GJQsqaUBKTNV-1" vertex="1">
          <mxGeometry x="350" y="1080" width="230" height="140" as="geometry" />
        </mxCell>
      </root>
    </mxGraphModel>
  </diagram>
</mxfile>
